<?xml version="1.0" encoding="utf-8"?>
<!-- Generator: Adobe Illustrator 16.0.0, SVG Export Plug-In . SVG Version: 6.00 Build 0)  -->
<!DOCTYPE svg PUBLIC "-//W3C//DTD SVG 1.1//EN" "http://www.w3.org/Graphics/SVG/1.1/DTD/svg11.dtd">
<svg version="1.1" id="Layer_1" xmlns="http://www.w3.org/2000/svg" xmlns:xlink="http://www.w3.org/1999/xlink" x="0px" y="0px"
	 width="283.46px" height="283.46px" viewBox="0 0 283.46 283.46" enable-background="new 0 0 283.46 283.46" xml:space="preserve">
<g>
	<path fill="#ED1C24" d="M234.313,229.566V120.279c0,0-6.281-82.907-92.965-82.907c-0.131,0-0.257,0.006-0.389,0.006
		s-0.257-0.006-0.389-0.006c-86.683,0-92.964,82.907-92.964,82.907v109.287c0,0-1.047,16.75,7.013,16.75
		c8.061,0,17.273-22.402,27.95-22.402s14.55,22.402,28.892,22.402c14.341,0,12.159-22.508,29.109-22.508
		c0.135,0,0.257,0.014,0.389,0.017c0.132-0.003,0.254-0.017,0.389-0.017c16.951,0,14.768,22.508,29.109,22.508
		s18.215-22.402,28.893-22.402c10.677,0,19.889,22.402,27.949,22.402S234.313,229.566,234.313,229.566z"/>
	<circle fill="#FFFFFF" cx="120.21" cy="123.629" r="25.751"/>
	<circle fill="#FFFFFF" cx="198.886" cy="123.629" r="25.751"/>
	<circle fill="#2B3990" cx="130.887" cy="122.792" r="11.724"/>
	<circle fill="#2B3990" cx="208.491" cy="122.792" r="11.724"/>
</g>
</svg>
