<?xml version="1.0" encoding="utf-8"?>
<!-- Generator: Adobe Illustrator 16.0.0, SVG Export Plug-In . SVG Version: 6.00 Build 0)  -->
<!DOCTYPE svg PUBLIC "-//W3C//DTD SVG 1.1//EN" "http://www.w3.org/Graphics/SVG/1.1/DTD/svg11.dtd">
<svg version="1.1" id="Layer_1" xmlns="http://www.w3.org/2000/svg" xmlns:xlink="http://www.w3.org/1999/xlink" x="0px" y="0px"
	 width="283.46px" height="283.46px" viewBox="0 0 283.46 283.46" enable-background="new 0 0 283.46 283.46" xml:space="preserve">
<g>
	<path fill="#F26522" d="M234.548,229.474v-109.29c0,0-6.281-82.906-92.965-82.906c-0.133,0-0.258,0.006-0.389,0.006
		c-0.131,0-0.256-0.006-0.391-0.006c-86.682,0-92.963,82.906-92.963,82.906v109.29c0,0-1.047,16.749,7.014,16.749
		s17.271-22.404,27.949-22.404s14.551,22.404,28.893,22.404s12.158-22.51,29.107-22.51c0.137,0,0.258,0.015,0.391,0.018
		c0.133-0.003,0.254-0.018,0.389-0.018c16.951,0,14.77,22.51,29.109,22.51s18.215-22.404,28.893-22.404s19.889,22.404,27.949,22.404
		S234.548,229.474,234.548,229.474z"/>
	<g>
		<path fill="#FFFFFF" d="M134.472,121.231c-6.475,0-11.723-5.249-11.723-11.723c0-4.448,2.479-8.317,6.127-10.305
			c-2.643-0.916-5.477-1.419-8.43-1.419c-14.223,0-25.752,11.529-25.752,25.75c0,14.222,11.529,25.75,25.752,25.75
			s25.75-11.529,25.75-25.75c0-2.954-0.504-5.789-1.418-8.431C142.79,118.753,138.921,121.231,134.472,121.231z"/>
		<path fill="#2B3990" d="M122.749,109.508c0,6.475,5.248,11.723,11.723,11.723c4.449,0,8.318-2.478,10.307-6.127
			c-2.578-7.438-8.465-13.324-15.902-15.9C125.228,101.19,122.749,105.06,122.749,109.508z"/>
	</g>
	<g>
		<path fill="#FFFFFF" d="M213.147,121.231c-6.473,0-11.723-5.249-11.723-11.723c0-4.448,2.477-8.317,6.129-10.305
			c-2.643-0.916-5.479-1.419-8.432-1.419c-14.223,0-25.752,11.529-25.752,25.75c0,14.222,11.529,25.75,25.752,25.75
			s25.752-11.529,25.752-25.75c0-2.954-0.506-5.789-1.42-8.431C221.468,118.753,217.597,121.231,213.147,121.231z"/>
		<path fill="#2B3990" d="M201.425,109.508c0,6.475,5.25,11.723,11.723,11.723c4.449,0,8.32-2.478,10.307-6.127
			c-2.578-7.438-8.463-13.324-15.9-15.9C203.901,101.19,201.425,105.06,201.425,109.508z"/>
	</g>
</g>
</svg>
