<?xml version="1.0" encoding="utf-8"?>
<!-- Generator: Adobe Illustrator 16.0.0, SVG Export Plug-In . SVG Version: 6.00 Build 0)  -->
<!DOCTYPE svg PUBLIC "-//W3C//DTD SVG 1.1//EN" "http://www.w3.org/Graphics/SVG/1.1/DTD/svg11.dtd">
<svg version="1.1" id="Layer_1" xmlns="http://www.w3.org/2000/svg" xmlns:xlink="http://www.w3.org/1999/xlink" x="0px" y="0px"
	 width="283.46px" height="283.46px" viewBox="0 0 283.46 283.46" enable-background="new 0 0 283.46 283.46" xml:space="preserve">
<g>
	<path fill="#00AEEF" d="M234.968,229.566V120.279c0,0-6.281-82.907-92.967-82.907c-0.131,0-0.256,0.006-0.387,0.006
		s-0.26-0.006-0.389-0.006c-86.684,0-92.965,82.907-92.965,82.907v109.287c0,0-1.047,16.75,7.012,16.75
		c8.063,0,17.275-22.402,27.951-22.402c10.678,0,14.549,22.402,28.893,22.402c14.342,0,12.156-22.508,29.109-22.508
		c0.135,0,0.254,0.014,0.389,0.017c0.133-0.003,0.254-0.017,0.387-0.017c16.951,0,14.77,22.508,29.111,22.508
		s18.213-22.402,28.891-22.402c10.68,0,19.891,22.402,27.951,22.402S234.968,229.566,234.968,229.566z"/>
	<g>
		<path fill="#FFFFFF" d="M129.89,122.792c0-6.475,5.248-11.724,11.725-11.724c0.621,0,1.225,0.063,1.818,0.156
			c-4.383-7.955-12.844-13.345-22.568-13.345c-14.223,0-25.75,11.529-25.75,25.751c0,14.222,11.527,25.751,25.75,25.751
			c10.459,0,19.459-6.241,23.49-15.2c-0.881,0.211-1.795,0.335-2.74,0.335C135.138,134.516,129.89,129.267,129.89,122.792z"/>
		<path fill="#2B3990" d="M143.433,111.223c-0.594-0.093-1.197-0.156-1.818-0.156c-6.477,0-11.725,5.25-11.725,11.724
			c0,6.475,5.248,11.725,11.725,11.725c0.945,0,1.859-0.124,2.74-0.335c1.451-3.221,2.262-6.791,2.262-10.552
			C146.616,119.13,145.46,114.903,143.433,111.223z"/>
	</g>
	<g>
		<path fill="#FFFFFF" d="M205.259,122.792c0-6.475,5.248-11.724,11.725-11.724c0.621,0,1.225,0.063,1.82,0.156
			c-4.383-7.955-12.846-13.345-22.568-13.345c-14.223,0-25.752,11.529-25.752,25.751c0,14.222,11.529,25.751,25.752,25.751
			c10.461,0,19.459-6.241,23.488-15.2c-0.879,0.211-1.793,0.335-2.74,0.335C210.507,134.516,205.259,129.267,205.259,122.792z"/>
		<path fill="#2B3990" d="M218.804,111.223c-0.596-0.093-1.199-0.156-1.82-0.156c-6.477,0-11.725,5.25-11.725,11.724
			c0,6.475,5.248,11.725,11.725,11.725c0.947,0,1.861-0.124,2.74-0.335c1.449-3.221,2.262-6.791,2.262-10.552
			C221.985,119.13,220.831,114.903,218.804,111.223z"/>
	</g>
</g>
</svg>
