<?xml version="1.0" encoding="utf-8"?>
<!-- Generator: Adobe Illustrator 16.0.0, SVG Export Plug-In . SVG Version: 6.00 Build 0)  -->
<!DOCTYPE svg PUBLIC "-//W3C//DTD SVG 1.1//EN" "http://www.w3.org/Graphics/SVG/1.1/DTD/svg11.dtd">
<svg version="1.1" id="Layer_1" xmlns="http://www.w3.org/2000/svg" xmlns:xlink="http://www.w3.org/1999/xlink" x="0px" y="0px"
	 width="283.46px" height="283.46px" viewBox="0 0 283.46 283.46" enable-background="new 0 0 283.46 283.46" xml:space="preserve">
<g>
	<path fill="#2B3990" d="M232.014,226.685V120.091c0,0-6.127-80.866-90.676-80.866c-0.128,0-0.251,0.005-0.379,0.006
		c-0.128,0-0.25-0.006-0.379-0.006c-84.548,0-90.675,80.866-90.675,80.866v106.594c0,0-1.022,16.337,6.84,16.337
		c7.863,0,16.849-21.851,27.262-21.851c10.415,0,14.192,21.851,28.18,21.851s11.859-21.953,28.393-21.953
		c0.132,0,0.25,0.014,0.379,0.017c0.129-0.003,0.248-0.017,0.379-0.017c16.534,0,14.404,21.953,28.393,21.953
		s17.766-21.851,28.18-21.851c10.415,0,19.4,21.851,27.263,21.851C233.034,243.021,232.014,226.685,232.014,226.685z"/>
	<g>
		<circle fill="#FFFFFF" cx="120.721" cy="123.358" r="25.117"/>
		<circle fill="#2B3990" cx="130.849" cy="129.688" r="11.435"/>
	</g>
	<g>
		<circle fill="#FFFFFF" cx="197.459" cy="123.358" r="25.118"/>
		<circle fill="#2B3990" cx="207.588" cy="129.688" r="11.436"/>
	</g>
</g>
</svg>
