<?xml version="1.0" encoding="utf-8"?>
<!-- Generator: Adobe Illustrator 16.0.0, SVG Export Plug-In . SVG Version: 6.00 Build 0)  -->
<!DOCTYPE svg PUBLIC "-//W3C//DTD SVG 1.1//EN" "http://www.w3.org/Graphics/SVG/1.1/DTD/svg11.dtd">
<svg version="1.1" id="Layer_1" xmlns="http://www.w3.org/2000/svg" xmlns:xlink="http://www.w3.org/1999/xlink" x="0px" y="0px"
	 width="283.46px" height="283.46px" viewBox="0 0 283.46 283.46" enable-background="new 0 0 283.46 283.46" xml:space="preserve">
<g>
	<path fill="#FFF200" d="M85.255,75.653H75.199V65.299h10.056V55.241h20.411V44.886h50.91V55.24h20.412v10.059h20.411v10.354h10.058
		v20.144h10.086v20.411h10.325v50.88h-10.325v20.412h-10.086v20.412h-10.058v10.087h-20.412v10.323h-20.412v10.087h-50.908v-10.087
		H85.255v-10.324H75.199V207.91h10.056v-10.057h10.356V187.5h10.054v-10.057h10.087v-10.356h10.354V157.03h10.055v-30.468h-10.055
		v-10.355h-10.354v-10.086h-10.087V95.796H95.61V85.71H85.255V75.653z M85.255,126.562v30.468H54.787v-30.468H85.255z"/>
	<path fill="#010101" d="M105.666,55.24H85.255v10.059H75.199v10.354h10.056v10.057H75.199V75.653H64.845V65.299h10.354V55.241
		h10.056V44.886h20.411V34.829h50.91v10.057h20.412V55.24h20.411v10.059h10.058v10.354h10.086v20.144h10.325v20.411h10.086v50.88
		h-10.086v20.412h-10.325v20.412h-10.087v10.087h-10.057v10.324h-20.412v10.087h-20.412v10.354h-50.909v-10.354H85.254v-10.087
		H75.199v-10.324H64.845V207.91h10.354v-10.057h10.056V187.5H95.61v-10.057h10.055v-10.356h10.087V157.03h10.354v-30.468h-10.354
		v-10.355h-10.087v-10.086H95.61V95.796H85.255V85.71H95.61v10.086h10.055v10.325h10.087v10.086h10.354v10.354h10.055v30.468
		h-10.055v10.058h-10.354v10.353h-10.087v10.058H95.61v10.354H85.254v10.058H75.198v10.086h10.056v10.325h20.412v10.088h50.91
		v-10.088h20.412v-10.323h20.411V207.91h10.057v-20.411h10.087v-20.412h10.325v-50.88h-10.325V95.796h-10.087V75.652h-10.057V65.299
		h-20.411V55.24h-20.412V44.886h-50.91V55.24L105.666,55.24z M85.255,126.562H95.61v30.468H85.255v10.058H54.787V157.03H44.435
		v-30.468h10.353v-10.355h30.468V126.562H54.787v30.468h30.468V126.562z"/>
</g>
</svg>
