<?xml version="1.0" encoding="utf-8"?>
<!-- Generator: Adobe Illustrator 16.0.0, SVG Export Plug-In . SVG Version: 6.00 Build 0)  -->
<!DOCTYPE svg PUBLIC "-//W3C//DTD SVG 1.1//EN" "http://www.w3.org/Graphics/SVG/1.1/DTD/svg11.dtd">
<svg version="1.1" id="Layer_1" xmlns="http://www.w3.org/2000/svg" xmlns:xlink="http://www.w3.org/1999/xlink" x="0px" y="0px"
	 width="283.46px" height="283.46px" viewBox="0 0 283.46 283.46" enable-background="new 0 0 283.46 283.46" xml:space="preserve">
<g>
	<path fill="#2B3990" d="M232.567,226.685V120.091c0,0-6.126-80.866-90.675-80.866c-0.128,0-0.251,0.005-0.379,0.006
		c-0.129,0-0.25-0.006-0.379-0.006c-84.548,0-90.676,80.866-90.676,80.866v106.594c0,0-1.02,16.337,6.842,16.337
		c7.862,0,16.846-21.851,27.26-21.851c10.416,0,14.194,21.851,28.182,21.851c13.989,0,11.859-21.953,28.392-21.953
		c0.132,0,0.25,0.014,0.379,0.017c0.13-0.003,0.248-0.017,0.379-0.017c16.533,0,14.404,21.953,28.394,21.953
		c13.987,0,17.767-21.851,28.179-21.851c10.414,0,19.398,21.851,27.263,21.851C233.59,243.021,232.567,226.685,232.567,226.685z
		 M172.366,97.408c8.22,0,14.886,11.245,14.886,25.118c0,13.871-6.666,25.117-14.886,25.117c-8.224,0-14.886-11.246-14.886-25.117
		C157.48,108.653,164.143,97.408,172.366,97.408z M115.822,97.408c8.221,0,14.886,11.245,14.886,25.118
		c0,13.871-6.665,25.117-14.886,25.117c-8.222,0-14.885-11.246-14.885-25.117C100.937,108.653,107.6,97.408,115.822,97.408z
		 M207.852,180.49l-16.787,16.307l-0.602,0.585l-0.589-0.653l-14.864-16.511l-16.861,17.42l-1.612,1.669l-1.464-1.928
		l-11.353-14.956l-11.316,14.991l-1.495,1.984l-1.67-1.717l-16.809-17.275l-14.727,16.447l-0.723,0.809l-0.749-0.723l-16.832-16.26
		l0.181-0.196l-2.391-2.694l2.738,2.319l0.17-0.186l16.709,14.798l14.408-17.566l1.023-1.248l1.222,1.154l16.906,15.931
		l11.258-16.343l2.094-3.042l2.085,3.042l11.256,16.437l16.996-15.933l1.127-1.055l0.932,1.142L190.602,195l16.904-14.889
		l2.744-2.322L207.852,180.49z"/>
	<ellipse fill="#FFFFFF" cx="115.822" cy="122.525" rx="14.886" ry="25.117"/>
	<ellipse fill="#FFFFFF" cx="172.366" cy="122.525" rx="14.886" ry="25.117"/>
	<polygon fill="#FFFFFF" points="207.506,180.111 190.602,195 176.115,177.239 175.184,176.098 174.057,177.152 157.061,193.085 
		145.805,176.648 143.72,173.606 141.625,176.648 130.368,192.991 113.461,177.061 112.239,175.906 111.216,177.154 96.808,194.721 
		80.099,179.923 79.928,180.108 77.19,177.789 79.581,180.483 79.399,180.68 96.231,196.939 96.98,197.662 97.703,196.854 
		112.43,180.406 129.239,197.682 130.909,199.398 132.404,197.414 143.72,182.423 155.072,197.379 156.536,199.307 158.148,197.638 
		175.01,180.218 189.874,196.729 190.463,197.382 191.064,196.797 207.852,180.49 210.25,177.789 	"/>
</g>
</svg>
