  0
SECTION
  2
HEADER
  9
$ACADVER
  1
AC1018
  9
$ACADMAINTVER
 70
     0
  9
$DWGCODEPAGE
  3
ANSI_1252
  9
$INSBASE
 10
0.0
 20
0.0
 30
0.0
  9
$EXTMIN
 10
1.000000000000000E+20
 20
1.000000000000000E+20
 30
1.000000000000000E+20
  9
$EXTMAX
 10
-1.000000000000000E+20
 20
-1.000000000000000E+20
 30
-1.000000000000000E+20
  9
$LIMMIN
 10
0.0
 20
0.0
  9
$LIMMAX
 10
12.0
 20
9.0
  9
$ORTHOMODE
 70
     0
  9
$REGENMODE
 70
     1
  9
$FILLMODE
 70
     1
  9
$QTEXTMODE
 70
     0
  9
$MIRRTEXT
 70
     1
  9
$LTSCALE
 40
1.0
  9
$ATTMODE
 70
     1
  9
$TEXTSIZE
 40
0.2
  9
$TRACEWID
 40
0.05
  9
$TEXTSTYLE
  7
Standard
  9
$CLAYER
  8
0
  9
$CELTYPE
  6
ByLayer
  9
$CECOLOR
 62
   256
  9
$CELTSCALE
 40
1.0
  9
$DISPSILH
 70
     0
  9
$DIMSCALE
 40
1.0
  9
$DIMASZ
 40
0.18
  9
$DIMEXO
 40
0.0625
  9
$DIMDLI
 40
0.38
  9
$DIMRND
 40
0.0
  9
$DIMDLE
 40
0.0
  9
$DIMEXE
 40
0.18
  9
$DIMTP
 40
0.0
  9
$DIMTM
 40
0.0
  9
$DIMTXT
 40
0.18
  9
$DIMCEN
 40
0.09
  9
$DIMTSZ
 40
0.0
  9
$DIMTOL
 70
     0
  9
$DIMLIM
 70
     0
  9
$DIMTIH
 70
     1
  9
$DIMTOH
 70
     1
  9
$DIMSE1
 70
     0
  9
$DIMSE2
 70
     0
  9
$DIMTAD
 70
     0
  9
$DIMZIN
 70
     0
  9
$DIMBLK
  1

  9
$DIMASO
 70
     1
  9
$DIMSHO
 70
     1
  9
$DIMPOST
  1

  9
$DIMAPOST
  1

  9
$DIMALT
 70
     0
  9
$DIMALTD
 70
     2
  9
$DIMALTF
 40
25.4
  9
$DIMLFAC
 40
1.0
  9
$DIMTOFL
 70
     0
  9
$DIMTVP
 40
0.0
  9
$DIMTIX
 70
     0
  9
$DIMSOXD
 70
     0
  9
$DIMSAH
 70
     0
  9
$DIMBLK1
  1

  9
$DIMBLK2
  1

  9
$DIMSTYLE
  2
Standard
  9
$DIMCLRD
 70
     0
  9
$DIMCLRE
 70
     0
  9
$DIMCLRT
 70
     0
  9
$DIMTFAC
 40
1.0
  9
$DIMGAP
 40
0.09
  9
$DIMJUST
 70
     0
  9
$DIMSD1
 70
     0
  9
$DIMSD2
 70
     0
  9
$DIMTOLJ
 70
     1
  9
$DIMTZIN
 70
     0
  9
$DIMALTZ
 70
     0
  9
$DIMALTTZ
 70
     0
  9
$DIMUPT
 70
     0
  9
$DIMDEC
 70
     4
  9
$DIMTDEC
 70
     4
  9
$DIMALTU
 70
     2
  9
$DIMALTTD
 70
     2
  9
$DIMTXSTY
  7
Standard
  9
$DIMAUNIT
 70
     0
  9
$DIMADEC
 70
     0
  9
$DIMALTRND
 40
0.0
  9
$DIMAZIN
 70
     0
  9
$DIMDSEP
 70
    46
  9
$DIMATFIT
 70
     3
  9
$DIMFRAC
 70
     0
  9
$DIMLDRBLK
  1

  9
$DIMLUNIT
 70
     2
  9
$DIMLWD
 70
    -2
  9
$DIMLWE
 70
    -2
  9
$DIMTMOVE
 70
     0
  9
$LUNITS
 70
     2
  9
$LUPREC
 70
     4
  9
$SKETCHINC
 40
0.1
  9
$FILLETRAD
 40
0.5
  9
$AUNITS
 70
     0
  9
$AUPREC
 70
     0
  9
$MENU
  1
.
  9
$ELEVATION
 40
0.0
  9
$PELEVATION
 40
0.0
  9
$THICKNESS
 40
0.0
  9
$LIMCHECK
 70
     0
  9
$CHAMFERA
 40
0.5
  9
$CHAMFERB
 40
0.5
  9
$CHAMFERC
 40
1.0
  9
$CHAMFERD
 40
0.0
  9
$SKPOLY
 70
     0
  9
$TDCREATE
 40
2458182.538492025
  9
$TDUCREATE
 40
2458182.246825359
  9
$TDUPDATE
 40
2458182.538492037
  9
$TDUUPDATE
 40
2458182.24682537
  9
$TDINDWG
 40
0.0000000116
  9
$TDUSRTIMER
 40
0.0000000116
  9
$USRTIMER
 70
     1
  9
$ANGBASE
 50
0.0
  9
$ANGDIR
 70
     0
  9
$PDMODE
 70
     0
  9
$PDSIZE
 40
0.0
  9
$PLINEWID
 40
0.0
  9
$SPLFRAME
 70
     0
  9
$SPLINETYPE
 70
     6
  9
$SPLINESEGS
 70
     8
  9
$HANDSEED
  5
64
  9
$SURFTAB1
 70
     6
  9
$SURFTAB2
 70
     6
  9
$SURFTYPE
 70
     6
  9
$SURFU
 70
     6
  9
$SURFV
 70
     6
  9
$UCSBASE
  2

  9
$UCSNAME
  2

  9
$UCSORG
 10
0.0
 20
0.0
 30
0.0
  9
$UCSXDIR
 10
1.0
 20
0.0
 30
0.0
  9
$UCSYDIR
 10
0.0
 20
1.0
 30
0.0
  9
$UCSORTHOREF
  2

  9
$UCSORTHOVIEW
 70
     0
  9
$UCSORGTOP
 10
0.0
 20
0.0
 30
0.0
  9
$UCSORGBOTTOM
 10
0.0
 20
0.0
 30
0.0
  9
$UCSORGLEFT
 10
0.0
 20
0.0
 30
0.0
  9
$UCSORGRIGHT
 10
0.0
 20
0.0
 30
0.0
  9
$UCSORGFRONT
 10
0.0
 20
0.0
 30
0.0
  9
$UCSORGBACK
 10
0.0
 20
0.0
 30
0.0
  9
$PUCSBASE
  2

  9
$PUCSNAME
  2

  9
$PUCSORG
 10
0.0
 20
0.0
 30
0.0
  9
$PUCSXDIR
 10
1.0
 20
0.0
 30
0.0
  9
$PUCSYDIR
 10
0.0
 20
1.0
 30
0.0
  9
$PUCSORTHOREF
  2

  9
$PUCSORTHOVIEW
 70
     0
  9
$PUCSORGTOP
 10
0.0
 20
0.0
 30
0.0
  9
$PUCSORGBOTTOM
 10
0.0
 20
0.0
 30
0.0
  9
$PUCSORGLEFT
 10
0.0
 20
0.0
 30
0.0
  9
$PUCSORGRIGHT
 10
0.0
 20
0.0
 30
0.0
  9
$PUCSORGFRONT
 10
0.0
 20
0.0
 30
0.0
  9
$PUCSORGBACK
 10
0.0
 20
0.0
 30
0.0
  9
$USERI1
 70
     0
  9
$USERI2
 70
     0
  9
$USERI3
 70
     0
  9
$USERI4
 70
     0
  9
$USERI5
 70
     0
  9
$USERR1
 40
0.0
  9
$USERR2
 40
0.0
  9
$USERR3
 40
0.0
  9
$USERR4
 40
0.0
  9
$USERR5
 40
0.0
  9
$WORLDVIEW
 70
     1
  9
$SHADEDGE
 70
     3
  9
$SHADEDIF
 70
    70
  9
$TILEMODE
 70
     1
  9
$MAXACTVP
 70
    64
  9
$PINSBASE
 10
0.0
 20
0.0
 30
0.0
  9
$PLIMCHECK
 70
     0
  9
$PEXTMIN
 10
1.000000000000000E+20
 20
1.000000000000000E+20
 30
1.000000000000000E+20
  9
$PEXTMAX
 10
-1.000000000000000E+20
 20
-1.000000000000000E+20
 30
-1.000000000000000E+20
  9
$PLIMMIN
 10
0.0
 20
0.0
  9
$PLIMMAX
 10
12.0
 20
9.0
  9
$UNITMODE
 70
     0
  9
$VISRETAIN
 70
     1
  9
$PLINEGEN
 70
     0
  9
$PSLTSCALE
 70
     1
  9
$TREEDEPTH
 70
  3020
  9
$CMLSTYLE
  2
Standard
  9
$CMLJUST
 70
     0
  9
$CMLSCALE
 40
1.0
  9
$PROXYGRAPHICS
 70
     1
  9
$MEASUREMENT
 70
     0
  9
$CELWEIGHT
370
    -1
  9
$ENDCAPS
280
     0
  9
$JOINSTYLE
280
     0
  9
$LWDISPLAY
290
     1
  9
$INSUNITS
 70
     1
  9
$HYPERLINKBASE
  1

  9
$STYLESHEET
  1

  9
$XEDIT
290
     1
  9
$CEPSNTYPE
380
     0
  9
$PSTYLEMODE
290
     1
  9
$FINGERPRINTGUID
  2
{3E817052-1A84-4D58-8F36-6CD1FBED13CA}
  9
$VERSIONGUID
  2
{FAEB1C32-E019-11D5-929B-00C0DF256EC4}
  9
$EXTNAMES
290
     1
  9
$PSVPSCALE
 40
0.0
  9
$OLESTARTUP
290
     0
  9
$SORTENTS
280
   127
  9
$INDEXCTL
280
     0
  9
$HIDETEXT
280
     1
  9
$XCLIPFRAME
290
     0
  9
$HALOGAP
280
     0
  9
$OBSCOLOR
 70
   257
  9
$OBSLTYPE
280
     0
  9
$INTERSECTIONDISPLAY
280
     0
  9
$INTERSECTIONCOLOR
 70
   257
  9
$DIMASSOC
280
     2
  9
$PROJECTNAME
  1

  0
ENDSEC
  0
SECTION
  2
CLASSES
  0
CLASS
  1
ACDBDICTIONARYWDFLT
  2
AcDbDictionaryWithDefault
  3
ObjectDBX Classes
 90
        0
 91
        3
280
     0
281
     0
  0
CLASS
  1
VISUALSTYLE
  2
AcDbVisualStyle
  3
ObjectDBX Classes
 90
     4095
 91
        3
280
     0
281
     0
  0
ENDSEC
  0
SECTION
  2
TABLES
  0
TABLE
  2
VPORT
  5
8
330
0
100
AcDbSymbolTable
 70
     1
  0
VPORT
  5
29
330
8
100
AcDbSymbolTableRecord
100
AcDbViewportTableRecord
  2
*Active
 70
     0
 10
0.0
 20
0.0
 11
1.0
 21
1.0
 12
0.0
 22
0.0
 13
0.0
 23
0.0
 14
0.5
 24
0.5
 15
0.5
 25
0.5
 16
0.0
 26
0.0
 36
1.0
 17
49.99918754175368
 27
-49.99918754175368
 37
0.0
 40
99.99837508350736
 41
1.0
 42
50.0
 43
0.0
 44
0.0
 50
0.0
 51
0.0
 71
     0
 72
   100
 73
     1
 74
     3
 75
     0
 76
     0
 77
     0
 78
     0
281
     0
 65
     1
110
0.0
120
0.0
130
0.0
111
1.0
121
0.0
131
0.0
112
0.0
122
1.0
132
0.0
 79
     0
146
0.0
  0
ENDTAB
  0
TABLE
  2
LTYPE
  5
5
330
0
100
AcDbSymbolTable
 70
     1
  0
LTYPE
  5
14
330
5
100
AcDbSymbolTableRecord
100
AcDbLinetypeTableRecord
  2
ByBlock
 70
     0
  3

 72
    65
 73
     0
 40
0.0
  0
LTYPE
  5
15
330
5
100
AcDbSymbolTableRecord
100
AcDbLinetypeTableRecord
  2
ByLayer
 70
     0
  3

 72
    65
 73
     0
 40
0.0
  0
LTYPE
  5
16
330
5
100
AcDbSymbolTableRecord
100
AcDbLinetypeTableRecord
  2
Continuous
 70
     0
  3
Solid line
 72
    65
 73
     0
 40
0.0
  0
ENDTAB
  0
TABLE
  2
LAYER
  5
2
330
0
100
AcDbSymbolTable
 70
     2
  0
LAYER
  5
10
330
2
100
AcDbSymbolTableRecord
100
AcDbLayerTableRecord
  2
0
 70
     0
 62
     7
  6
Continuous
370
    -3
390
F
  0
LAYER
  5
3B
330
2
100
AcDbSymbolTableRecord
100
AcDbLayerTableRecord
  2
Layer 1
 70
     0
 62
     7
  6
Continuous
370
    -3
390
F
  0
ENDTAB
  0
TABLE
  2
STYLE
  5
3
330
0
100
AcDbSymbolTable
 70
     1
  0
STYLE
  5
11
330
3
100
AcDbSymbolTableRecord
100
AcDbTextStyleTableRecord
  2
Standard
 70
     0
 40
0.0
 41
1.0
 50
0.0
 71
     0
 42
0.2
  3
txt
  4

  0
ENDTAB
  0
TABLE
  2
VIEW
  5
6
330
0
100
AcDbSymbolTable
 70
     0
  0
ENDTAB
  0
TABLE
  2
UCS
  5
7
330
0
100
AcDbSymbolTable
 70
     0
  0
ENDTAB
  0
TABLE
  2
APPID
  5
9
330
0
100
AcDbSymbolTable
 70
     1
  0
APPID
  5
12
330
9
100
AcDbSymbolTableRecord
100
AcDbRegAppTableRecord
  2
ACAD
 70
     0
  0
ENDTAB
  0
TABLE
  2
DIMSTYLE
  5
A
330
0
100
AcDbSymbolTable
 70
     1
100
AcDbDimStyleTable
  0
DIMSTYLE
105
27
330
A
100
AcDbSymbolTableRecord
100
AcDbDimStyleTableRecord
  2
Standard
 70
     0
340
11
  0
ENDTAB
  0
TABLE
  2
BLOCK_RECORD
  5
1
330
0
100
AcDbSymbolTable
 70
     2
  0
BLOCK_RECORD
  5
1F
330
1
100
AcDbSymbolTableRecord
100
AcDbBlockTableRecord
  2
*Model_Space
340
22
  0
BLOCK_RECORD
  5
1B
330
1
100
AcDbSymbolTableRecord
100
AcDbBlockTableRecord
  2
*Paper_Space
340
1E
  0
BLOCK_RECORD
  5
23
330
1
100
AcDbSymbolTableRecord
100
AcDbBlockTableRecord
  2
*Paper_Space0
340
26
  0
BLOCK_RECORD
  5
3C
330
1
100
AcDbSymbolTableRecord
100
AcDbBlockTableRecord
  2
block 2
340
0
102
{BLKREFS
331
3D
102
}
  0
ENDTAB
  0
ENDSEC
  0
SECTION
  2
BLOCKS
  0
BLOCK
  5
20
330
1F
100
AcDbEntity
  8
0
100
AcDbBlockBegin
  2
*Model_Space
 70
     0
 71
     0
 10
0.0
 20
0.0
 30
0.0
  3
*Model_Space
  1

  0
ENDBLK
  5
21
330
1F
100
AcDbEntity
  8
0
100
AcDbBlockEnd
  0
BLOCK
  5
1C
330
1B
100
AcDbEntity
 67
     1
  8
0
100
AcDbBlockBegin
  2
*Paper_Space
 70
     0
 71
     0
 10
0.0
 20
0.0
 30
0.0
  3
*Paper_Space
  1

  0
ENDBLK
  5
1D
330
1B
100
AcDbEntity
 67
     1
  8
0
100
AcDbBlockEnd
  0
BLOCK
  5
24
330
23
100
AcDbEntity
  8
0
100
AcDbBlockBegin
  2
*Paper_Space0
 70
     0
 71
     0
 10
0.0
 20
0.0
 30
0.0
  3
*Paper_Space0
  1

  0
ENDBLK
  5
25
330
23
100
AcDbEntity
  8
0
100
AcDbBlockEnd
  0
BLOCK
  5
3E
330
3C
100
AcDbEntity
  8
0
100
AcDbBlockBegin
  2
block 2
 70
     0
 71
     0
 10
0.0
 20
0.0
 30
0.0
  3
block 2
  1

  0
SPLINE
  5
40
330
3C
100
AcDbEntity
  8
Layer 1
370
     0
100
AcDbSpline
210
0.0
220
0.0
230
1.0
 70
    11
 71
     3
 72
    14
 73
    10
 74
     0
 42
0.0000000001
 43
0.0000000001
 40
0.0
 40
0.0
 40
0.0
 40
0.0
 40
1.0
 40
1.0
 40
1.0
 40
2.0
 40
2.0
 40
2.0
 40
3.0
 40
3.0
 40
3.0
 40
3.0
 10
68.38652342040338
 20
-23.33087564520895
 30
0.0
 10
68.30728622424263
 20
-21.2038736926157
 30
0.0
 10
67.73161076865738
 20
-19.23052299866459
 30
0.0
 10
66.46829425421626
 20
-17.46904567705635
 30
0.0
 10
67.2603217062752
 20
-19.33869899690144
 30
0.0
 10
67.83909774779717
 20
-21.27484265961185
 30
0.0
 10
68.29626191868982
 20
-23.24784884401443
 30
0.0
 10
68.32657875896003
 20
-23.27540960789643
 30
0.0
 10
68.35620658013318
 20
-23.30331488132695
 30
0.0
 10
68.38652342040338
 20
-23.33087564520895
 30
0.0
  0
SPLINE
  5
41
330
3C
100
AcDbEntity
  8
Layer 1
370
     0
100
AcDbSpline
210
0.0
220
0.0
230
1.0
 70
    11
 71
     3
 72
    17
 73
    13
 74
     0
 42
0.0000000001
 43
0.0000000001
 40
0.0
 40
0.0
 40
0.0
 40
0.0
 40
1.0
 40
1.0
 40
1.0
 40
2.0
 40
2.0
 40
2.0
 40
3.0
 40
3.0
 40
3.0
 40
4.0
 40
4.0
 40
4.0
 40
4.0
 10
72.95575356249023
 20
-28.34280055715041
 30
0.0
 10
73.06496308937265
 20
-28.48680554843386
 30
0.0
 10
73.17245006851245
 20
-28.6321885779114
 30
0.0
 10
73.27924802855519
 20
-28.77757160738894
 30
0.0
 10
73.90935599280739
 20
-29.05765787033975
 30
0.0
 10
74.52878416105531
 20
-29.34773491019779
 30
0.0
 10
75.13339841871665
 20
-29.66571722348635
 30
0.0
 10
76.10836044104236
 20
-30.17903645078858
 30
0.0
 10
77.04163680799654
 20
-30.76366915463547
 30
0.0
 10
77.97525768449924
 20
-31.35760361629254
 30
0.0
 10
77.28175996331845
 20
-30.33647731446449
 30
0.0
 10
74.50880260724085
 20
-28.75104437215252
 30
0.0
 10
72.95575356249023
 20
-28.34280055715041
 30
0.0
  0
SPLINE
  5
42
330
3C
100
AcDbEntity
  8
Layer 1
370
     0
100
AcDbSpline
210
0.0
220
0.0
230
1.0
 70
    11
 71
     3
 72
    11
 73
     7
 74
     0
 42
0.0000000001
 43
0.0000000001
 40
0.0
 40
0.0
 40
0.0
 40
0.0
 40
1.0
 40
1.0
 40
1.0
 40
2.0
 40
2.0
 40
2.0
 40
2.0
 10
66.5626898705121
 20
-25.4082682228146
 30
0.0
 10
64.98345810007358
 20
-24.58902451642219
 30
0.0
 10
63.52997231484667
 20
-23.57444389601611
 30
0.0
 10
62.02549911643807
 20
-22.64220105770751
 30
0.0
 10
63.28399249719984
 20
-23.98888888289167
 30
0.0
 10
64.7285210341651
 20
-25.02655164304892
 30
0.0
 10
66.5626898705121
 20
-25.4082682228146
 30
0.0
  0
HATCH
  5
43
330
3C
100
AcDbEntity
  8
Layer 1
 62
     2
420
 16773376
100
AcDbHatch
 10
0.0
 20
0.0
 30
0.0
210
0.0
220
0.0
230
1.0
  2
SOLID
 70
     1
 71
     0
 91
        1
 92
        1
 93
        1
 72
     4
 94
        3
 73
     0
 74
     1
 95
       11
 96
        7
 40
0.0
 40
0.0
 40
0.0
 40
0.0
 40
1.0
 40
1.0
 40
1.0
 40
2.0
 40
2.0
 40
2.0
 40
2.0
 10
66.5626898705121
 20
-25.4082682228146
 10
64.98345810007358
 20
-24.58902451642219
 10
63.52997231484667
 20
-23.57444389601611
 10
62.02549911643807
 20
-22.64220105770751
 10
63.28399249719984
 20
-23.98888888289167
 10
64.7285210341651
 20
-25.02655164304892
 10
66.5626898705121
 20
-25.4082682228146
 97
        0
 75
     2
 76
     1
 98
        0
  0
SPLINE
  5
44
330
3C
100
AcDbEntity
  8
Layer 1
370
     0
100
AcDbSpline
210
0.0
220
0.0
230
1.0
 70
    11
 71
     3
 72
    14
 73
    10
 74
     0
 42
0.0000000001
 43
0.0000000001
 40
0.0
 40
0.0
 40
0.0
 40
0.0
 40
1.0
 40
1.0
 40
1.0
 40
2.0
 40
2.0
 40
2.0
 40
3.0
 40
3.0
 40
3.0
 40
3.0
 10
68.40168184053847
 20
-23.70570203400413
 30
0.0
 10
68.40030380234437
 20
-23.57961153924399
 30
0.0
 10
68.39100204453419
 20
-23.45593261132352
 30
0.0
 10
68.38652342040338
 20
-23.33087564520895
 30
0.0
 10
68.35620658013318
 20
-23.30331488132695
 30
0.0
 10
68.32657875896003
 20
-23.27540960789643
 30
0.0
 10
68.29626191868982
 20
-23.24784884401443
 30
0.0
 10
68.33140189263938
 20
-23.40046657401099
 30
0.0
 10
68.36791990478302
 20
-23.55273979445904
 30
0.0
 10
68.40168184053847
 20
-23.70570203400413
 30
0.0
  0
HATCH
  5
45
330
3C
100
AcDbEntity
  8
Layer 1
 62
     2
420
 16773376
100
AcDbHatch
 10
0.0
 20
0.0
 30
0.0
210
0.0
220
0.0
230
1.0
  2
SOLID
 70
     1
 71
     0
 91
        1
 92
        1
 93
        1
 72
     4
 94
        3
 73
     0
 74
     1
 95
       14
 96
       10
 40
0.0
 40
0.0
 40
0.0
 40
0.0
 40
1.0
 40
1.0
 40
1.0
 40
2.0
 40
2.0
 40
2.0
 40
3.0
 40
3.0
 40
3.0
 40
3.0
 10
68.40168184053847
 20
-23.70570203400413
 10
68.40030380234437
 20
-23.57961153924399
 10
68.39100204453419
 20
-23.45593261132352
 10
68.38652342040338
 20
-23.33087564520895
 10
68.35620658013318
 20
-23.30331488132695
 10
68.32657875896003
 20
-23.27540960789643
 10
68.29626191868982
 20
-23.24784884401443
 10
68.33140189263938
 20
-23.40046657401099
 10
68.36791990478302
 20
-23.55273979445904
 10
68.40168184053847
 20
-23.70570203400413
 97
        0
 75
     2
 76
     1
 98
        0
  0
SPLINE
  5
46
330
3C
100
AcDbEntity
  8
Layer 1
370
     0
100
AcDbSpline
210
0.0
220
0.0
230
1.0
 70
    11
 71
     3
 72
    11
 73
     7
 74
     0
 42
0.0000000001
 43
0.0000000001
 40
0.0
 40
0.0
 40
0.0
 40
0.0
 40
1.0
 40
1.0
 40
1.0
 40
2.0
 40
2.0
 40
2.0
 40
2.0
 10
72.01110838043472
 20
-34.69176702691734
 30
0.0
 10
71.38203394482811
 20
-33.08876409763059
 30
0.0
 10
70.70128307694274
 20
-31.50574272215829
 30
0.0
 10
70.15144583749687
 20
-29.87138942395577
 30
0.0
 10
70.22413735223563
 20
-31.69315591655588
 30
0.0
 10
70.94416230865285
 20
-33.26101887189308
 30
0.0
 10
72.01110838043472
 20
-34.69176702691734
 30
0.0
  0
HATCH
  5
47
330
3C
100
AcDbEntity
  8
Layer 1
 62
     2
420
 16773376
100
AcDbHatch
 10
0.0
 20
0.0
 30
0.0
210
0.0
220
0.0
230
1.0
  2
SOLID
 70
     1
 71
     0
 91
        1
 92
        1
 93
        1
 72
     4
 94
        3
 73
     0
 74
     1
 95
       11
 96
        7
 40
0.0
 40
0.0
 40
0.0
 40
0.0
 40
1.0
 40
1.0
 40
1.0
 40
2.0
 40
2.0
 40
2.0
 40
2.0
 10
72.01110838043472
 20
-34.69176702691734
 10
71.38203394482811
 20
-33.08876409763059
 10
70.70128307694274
 20
-31.50574272215829
 10
70.15144583749687
 20
-29.87138942395577
 10
70.22413735223563
 20
-31.69315591655588
 10
70.94416230865285
 20
-33.26101887189308
 10
72.01110838043472
 20
-34.69176702691734
 97
        0
 75
     2
 76
     1
 98
        0
  0
SPLINE
  5
48
330
3C
100
AcDbEntity
  8
Layer 1
370
     0
100
AcDbSpline
210
0.0
220
0.0
230
1.0
 70
    11
 71
     3
 72
    14
 73
    10
 74
     0
 42
0.0000000001
 43
0.0000000001
 40
0.0
 40
0.0
 40
0.0
 40
0.0
 40
1.0
 40
1.0
 40
1.0
 40
2.0
 40
2.0
 40
2.0
 40
3.0
 40
3.0
 40
3.0
 40
3.0
 10
72.10894909221582
 20
-28.27114257105722
 30
0.0
 10
72.50410154437398
 20
-28.43754068299478
 30
0.0
 10
72.89339733420721
 20
-28.6060058522235
 30
0.0
 10
73.27924802855519
 20
-28.77757160738894
 30
0.0
 10
73.17245006851245
 20
-28.6321885779114
 30
0.0
 10
73.06496308937265
 20
-28.48680554843386
 30
0.0
 10
72.95575356249023
 20
-28.34280055715041
 30
0.0
 10
72.59298500789342
 20
-28.24737141220899
 30
0.0
 10
72.29636228661342
 20
-28.21567653374469
 30
0.0
 10
72.10894909221582
 20
-28.27114257105722
 30
0.0
  0
HATCH
  5
49
330
3C
100
AcDbEntity
  8
Layer 1
 62
     2
420
 16773376
100
AcDbHatch
 10
0.0
 20
0.0
 30
0.0
210
0.0
220
0.0
230
1.0
  2
SOLID
 70
     1
 71
     0
 91
        1
 92
        1
 93
        1
 72
     4
 94
        3
 73
     0
 74
     1
 95
       14
 96
       10
 40
0.0
 40
0.0
 40
0.0
 40
0.0
 40
1.0
 40
1.0
 40
1.0
 40
2.0
 40
2.0
 40
2.0
 40
3.0
 40
3.0
 40
3.0
 40
3.0
 10
72.10894909221582
 20
-28.27114257105722
 10
72.50410154437398
 20
-28.43754068299478
 10
72.89339733420721
 20
-28.6060058522235
 10
73.27924802855519
 20
-28.77757160738894
 10
73.17245006851245
 20
-28.6321885779114
 10
73.06496308937265
 20
-28.48680554843386
 10
72.95575356249023
 20
-28.34280055715041
 10
72.59298500789342
 20
-28.24737141220899
 10
72.29636228661342
 20
-28.21567653374469
 10
72.10894909221582
 20
-28.27114257105722
 97
        0
 75
     2
 76
     1
 98
        0
  0
SPLINE
  5
4A
330
3C
100
AcDbEntity
  8
Layer 1
370
     0
100
AcDbSpline
210
0.0
220
0.0
230
1.0
 70
    11
 71
     3
 72
    11
 73
     7
 74
     0
 42
0.0000000001
 43
0.0000000001
 40
0.0
 40
0.0
 40
0.0
 40
0.0
 40
1.0
 40
1.0
 40
1.0
 40
2.0
 40
2.0
 40
2.0
 40
2.0
 10
74.24318574532809
 20
-32.19028319507743
 30
0.0
 10
73.1469563619216
 20
-31.10576713632078
 30
0.0
 10
72.10378144898795
 20
-29.97233072167359
 30
0.0
 10
71.04579262546773
 20
-28.85405272716149
 30
0.0
 10
71.76064993865707
 20
-30.30340439780609
 30
0.0
 10
72.78901094100414
 20
-31.45131021349134
 30
0.0
 10
74.24318574532809
 20
-32.19028319507743
 30
0.0
  0
HATCH
  5
4B
330
3C
100
AcDbEntity
  8
Layer 1
 62
     2
420
 16773376
100
AcDbHatch
 10
0.0
 20
0.0
 30
0.0
210
0.0
220
0.0
230
1.0
  2
SOLID
 70
     1
 71
     0
 91
        1
 92
        1
 93
        1
 72
     4
 94
        3
 73
     0
 74
     1
 95
       11
 96
        7
 40
0.0
 40
0.0
 40
0.0
 40
0.0
 40
1.0
 40
1.0
 40
1.0
 40
2.0
 40
2.0
 40
2.0
 40
2.0
 10
74.24318574532809
 20
-32.19028319507743
 10
73.1469563619216
 20
-31.10576713632078
 10
72.10378144898795
 20
-29.97233072167359
 10
71.04579262546773
 20
-28.85405272716149
 10
71.76064993865707
 20
-30.30340439780609
 10
72.78901094100414
 20
-31.45131021349134
 10
74.24318574532809
 20
-32.19028319507743
 97
        0
 75
     2
 76
     1
 98
        0
  0
SPLINE
  5
4C
330
3C
100
AcDbEntity
  8
Layer 1
370
     0
100
AcDbSpline
210
0.0
220
0.0
230
1.0
 70
    11
 71
     3
 72
   134
 73
   130
 74
     0
 42
0.0000000001
 43
0.0000000001
 40
0.0
 40
0.0
 40
0.0
 40
0.0
 40
1.0
 40
1.0
 40
1.0
 40
2.0
 40
2.0
 40
2.0
 40
3.0
 40
3.0
 40
3.0
 40
4.0
 40
4.0
 40
4.0
 40
5.0
 40
5.0
 40
5.0
 40
6.0
 40
6.0
 40
6.0
 40
7.0
 40
7.0
 40
7.0
 40
8.0
 40
8.0
 40
8.0
 40
9.0
 40
9.0
 40
9.0
 40
10.0
 40
10.0
 40
10.0
 40
11.0
 40
11.0
 40
11.0
 40
12.0
 40
12.0
 40
12.0
 40
13.0
 40
13.0
 40
13.0
 40
14.0
 40
14.0
 40
14.0
 40
15.0
 40
15.0
 40
15.0
 40
16.0
 40
16.0
 40
16.0
 40
17.0
 40
17.0
 40
17.0
 40
18.0
 40
18.0
 40
18.0
 40
19.0
 40
19.0
 40
19.0
 40
20.0
 40
20.0
 40
20.0
 40
21.0
 40
21.0
 40
21.0
 40
22.0
 40
22.0
 40
22.0
 40
23.0
 40
23.0
 40
23.0
 40
24.0
 40
24.0
 40
24.0
 40
25.0
 40
25.0
 40
25.0
 40
26.0
 40
26.0
 40
26.0
 40
27.0
 40
27.0
 40
27.0
 40
28.0
 40
28.0
 40
28.0
 40
29.0
 40
29.0
 40
29.0
 40
30.0
 40
30.0
 40
30.0
 40
31.0
 40
31.0
 40
31.0
 40
32.0
 40
32.0
 40
32.0
 40
33.0
 40
33.0
 40
33.0
 40
34.0
 40
34.0
 40
34.0
 40
35.0
 40
35.0
 40
35.0
 40
36.0
 40
36.0
 40
36.0
 40
37.0
 40
37.0
 40
37.0
 40
38.0
 40
38.0
 40
38.0
 40
39.0
 40
39.0
 40
39.0
 40
40.0
 40
40.0
 40
40.0
 40
41.0
 40
41.0
 40
41.0
 40
42.0
 40
42.0
 40
42.0
 40
43.0
 40
43.0
 40
43.0
 40
43.0
 10
72.27362465641076
 20
-40.81129013736663
 30
0.0
 10
71.32553437887
 20
-39.40052353615682
 30
0.0
 10
70.53419594590812
 20
-37.90673013375248
 30
0.0
 10
69.91028915352938
 20
-36.32784287286248
 30
0.0
 10
69.13996580302751
 20
-34.37585177091993
 30
0.0
 10
68.63422578579284
 20
-32.37562933218387
 30
0.0
 10
68.90604381957905
 20
-30.25069443688177
 30
0.0
 10
68.94393986991679
 20
-29.95510524424733
 30
0.0
 10
69.02558863291722
 20
-29.66468369484078
 30
0.0
 10
69.08105467022973
 20
-29.37081704994896
 30
0.0
 10
69.11722817282487
 20
-29.17582464548382
 30
0.0
 10
69.21472437505743
 20
-29.0983099970657
 30
0.0
 10
69.42315265191505
 20
-29.10726724532735
 30
0.0
 10
69.82071667091287
 20
-29.12483723230212
 30
0.0
 10
70.20381128887266
 20
-29.05524630350008
 30
0.0
 10
70.55348848062552
 20
-28.84475096935131
 30
0.0
 10
71.0909233763245
 20
-28.52125650328635
 30
0.0
 10
71.36067435281956
 20
-28.0255072629589
 30
0.0
 10
71.42819822433046
 20
-27.42399359123428
 30
0.0
 10
71.45713702640656
 20
-27.16009927706414
 30
0.0
 10
71.55911185276995
 20
-27.08120659045192
 30
0.0
 10
71.81335989958139
 20
-27.06949326580207
 30
0.0
 10
71.8578016313411
 20
-27.06742620851092
 30
0.0
 10
71.90189885355231
 20
-27.06811522760797
 30
0.0
 10
71.94634058531203
 20
-27.06673718941387
 30
0.0
 10
71.16292587196622
 20
-26.12071396916427
 30
0.0
 10
70.33231335047248
 20
-25.21534287564061
 30
0.0
 10
69.45967066405869
 20
-24.35234645658553
 30
0.0
 10
69.40351560764913
 20
-24.49807399561159
 30
0.0
 10
69.30739744361065
 20
-24.56077473344314
 30
0.0
 10
69.10861543411174
 20
-24.52597926904212
 30
0.0
 10
68.73275551667098
 20
-24.45983343572532
 30
0.0
 10
68.3648193188463
 20
-24.52942436452737
 30
0.0
 10
68.02134329896688
 20
-24.68927679504296
 30
0.0
 10
67.82600638495322
 20
-24.78022731585355
 30
0.0
 10
67.70611706206653
 20
-24.73888617003056
 30
0.0
 10
67.57382539543293
 20
-24.57352158673856
 30
0.0
 10
66.79730087305762
 20
-23.60579426493189
 30
0.0
 10
66.08864473174174
 20
-22.58880207768613
 30
0.0
 10
65.38377819545961
 20
-21.56974283314923
 30
0.0
 10
65.27284612083457
 20
-21.40920138353659
 30
0.0
 10
65.17466089950494
 20
-21.23935817611377
 30
0.0
 10
64.94969616431814
 20
-21.04884439577946
 30
0.0
 10
65.06717392036515
 20
-21.60074869251648
 30
0.0
 10
65.2897270887123
 20
-22.02139485126549
 30
0.0
 10
65.53053926313126
 20
-22.42205945620004
 30
0.0
 10
66.0400688853997
 20
-23.26851941692593
 30
0.0
 10
66.66294214913287
 20
-24.02540689503532
 30
0.0
 10
67.46633841629314
 20
-24.61486273256156
 30
0.0
 10
67.66546493534058
 20
-24.76127929068468
 30
0.0
 10
67.70611706206653
 20
-24.86256509795103
 30
0.0
 10
67.50630152392203
 20
-25.06927082706602
 30
0.0
 10
67.23310545194173
 20
-25.35142414730798
 30
0.0
 10
67.02433266553558
 20
-25.70006781041526
 30
0.0
 10
67.01193032178868
 20
-26.11003417315999
 30
0.0
 10
67.00228405442999
 20
-26.41699218089575
 30
0.0
 10
66.87309297373312
 20
-26.50484211576962
 30
0.0
 10
66.57784829064721
 20
-26.52206759319587
 30
0.0
 10
65.27043455399489
 20
-26.59854871296842
 30
0.0
 10
64.03054468885348
 20
-26.31053873040153
 30
0.0
 10
62.82717283585571
 20
-25.84269476350461
 30
0.0
 10
61.06948511928124
 20
-25.15815429058546
 30
0.0
 10
59.50678980717192
 20
-24.14150661288824
 30
0.0
 10
58.03573403497023
 20
-22.97327473384001
 30
0.0
 10
57.37289766360816
 20
-22.44755316279089
 30
0.0
 10
56.7403781325163
 20
-21.88875867508337
 30
0.0
 10
56.12577309794773
 20
-21.30584851897909
 30
0.0
 10
55.89529620998452
 20
-21.08742946521425
 30
0.0
 10
55.85877819784086
 20
-20.89691568487994
 30
0.0
 10
55.97625595388789
 20
-20.62854274657898
 30
0.0
 10
56.38208820205031
 20
-19.70043402285267
 30
0.0
 10
56.81927081912852
 20
-18.78851724790704
 30
0.0
 10
57.39391274606819
 20
-17.9496364972487
 30
0.0
 10
57.67641057585868
 20
-17.53656954856725
 30
0.0
 10
57.98543564088559
 20
-17.14727375873402
 30
0.0
 10
58.30755206875645
 20
-16.77072482219621
 30
0.0
 10
53.76622720010011
 20
-14.77773708397918
 30
0.0
 10
48.74879013538225
 20
-13.6694498663743
 30
0.0
 10
43.47159287107655
 20
-13.6694498663743
 30
0.0
 10
32.8572536810218
 20
-13.6694498663743
 30
0.0
 10
23.28918998983742
 20
-18.14566243035942
 30
0.0
 10
16.54851616339759
 20
-25.31180554922761
 30
0.0
 10
16.54851616339759
 20
-25.31180554922761
 30
0.0
 10
17.75981173601144
 20
-26.4507541166512
 30
0.0
 10
17.75981173601144
 20
-26.4507541166512
 30
0.0
 10
19.1175238667484
 20
-24.61692978985271
 30
0.0
 10
21.29000107974694
 20
-23.42251518511659
 30
0.0
 10
23.74704317982713
 20
-23.42251518511659
 30
0.0
 10
27.86358777515216
 20
-23.42251518511659
 30
0.0
 10
31.20016275261663
 20
-26.75977918167811
 30
0.0
 10
31.20016275261663
 20
-30.87597926745462
 30
0.0
 10
31.20016275261663
 20
-33.16834580333986
 30
0.0
 10
30.16353352110495
 20
-35.21645506932089
 30
0.0
 10
28.5357259043244
 20
-36.58381346741655
 30
0.0
 10
28.5357259043244
 20
-36.58381346741655
 30
0.0
 10
43.47159287107655
 20
-50.62808972258603
 30
0.0
 10
43.47159287107655
 20
-50.62808972258603
 30
0.0
 10
43.47159287107655
 20
-50.62808972258603
 30
0.0
 10
43.47193738062507
 20
-50.62808972258603
 30
0.0
 10
43.47193738062507
 20
-50.62808972258603
 30
0.0
 10
43.47193738062507
 20
-50.62808972258603
 30
0.0
 10
28.74966633395842
 20
-66.28467066485244
 30
0.0
 10
28.74966633395842
 20
-66.28467066485244
 30
0.0
 10
30.25138345597882
 20
-67.64823945791433
 30
0.0
 10
31.20016275261663
 20
-69.60987682721559
 30
0.0
 10
31.20016275261663
 20
-71.79820147944629
 30
0.0
 10
31.20016275261663
 20
-75.91474607477132
 30
0.0
 10
27.86358777515216
 20
-79.25132105223578
 30
0.0
 10
23.74704317982713
 20
-79.25132105223578
 30
0.0
 10
21.7237386013399
 20
-79.25132105223578
 30
0.0
 10
19.89129231273551
 20
-78.4420681227506
 30
0.0
 10
18.54839409258512
 20
-77.13362085745271
 30
0.0
 10
18.54839409258512
 20
-77.13362085745271
 30
0.0
 10
18.15496418816959
 20
-77.55185544936204
 30
0.0
 10
18.15496418816959
 20
-77.55185544936204
 30
0.0
 10
24.76954751984928
 20
-83.77369789572325
 30
0.0
 10
33.67443033012306
 20
-87.58741859789481
 30
0.0
 10
43.47159287107655
 20
-87.58741859789481
 30
0.0
 10
63.88309460208478
 20
-87.58741859789481
 30
0.0
 10
80.4305772368368
 20
-71.04028047269132
 30
0.0
 10
80.4305772368368
 20
-50.62808972258603
 30
0.0
 10
80.4305772368368
 20
-46.40061305263596
 30
0.0
 10
79.71882050958419
 20
-42.33987900417198
 30
0.0
 10
78.4117512824804
 20
-38.55681965181913
 30
0.0
 10
76.7460476153621
 20
-39.8387396818806
 30
0.0
 10
74.85021156982911
 20
-40.61870929974116
 30
0.0
 10
72.78349878822775
 20
-41.03694389165049
 30
0.0
 10
72.54234210426026
 20
-41.08517522844399
 30
0.0
 10
72.40901690898109
 20
-41.01282822325374
 30
0.0
 10
72.27362465641076
 20
-40.81129013736663
 30
0.0
  0
SPLINE
  5
4D
330
3C
100
AcDbEntity
  8
Layer 1
370
     0
100
AcDbSpline
210
0.0
220
0.0
230
1.0
 70
    11
 71
     3
 72
    17
 73
    13
 74
     0
 42
0.0000000001
 43
0.0000000001
 40
0.0
 40
0.0
 40
0.0
 40
0.0
 40
1.0
 40
1.0
 40
1.0
 40
2.0
 40
2.0
 40
2.0
 40
3.0
 40
3.0
 40
3.0
 40
4.0
 40
4.0
 40
4.0
 40
4.0
 10
43.2931369249406
 20
-37.81991372752419
 30
0.0
 10
40.58666991172834
 20
-37.81991372752419
 30
0.0
 10
38.39352212581829
 20
-35.62538790342004
 30
0.0
 10
38.39352212581829
 20
-32.91960990930482
 30
0.0
 10
38.39352212581829
 20
-30.21348740564108
 30
0.0
 10
40.58666991172834
 20
-28.01930609108545
 30
0.0
 10
43.2931369249406
 20
-28.01930609108545
 30
0.0
 10
45.99925942860435
 20
-28.01930609108545
 30
0.0
 10
48.19275172406292
 20
-30.21348740564108
 30
0.0
 10
48.19275172406292
 20
-32.91960990930482
 30
0.0
 10
48.19275172406292
 20
-35.62538790342004
 30
0.0
 10
45.99925942860435
 20
-37.81991372752419
 30
0.0
 10
43.2931369249406
 20
-37.81991372752419
 30
0.0
  0
SPLINE
  5
4E
330
3C
100
AcDbEntity
  8
Layer 1
370
     0
100
AcDbSpline
210
0.0
220
0.0
230
1.0
 70
    11
 71
     3
 72
    20
 73
    16
 74
     0
 42
0.0000000001
 43
0.0000000001
 40
0.0
 40
0.0
 40
0.0
 40
0.0
 40
1.0
 40
1.0
 40
1.0
 40
2.0
 40
2.0
 40
2.0
 40
3.0
 40
3.0
 40
3.0
 40
4.0
 40
4.0
 40
4.0
 40
5.0
 40
5.0
 40
5.0
 40
5.0
 10
67.3471381125035
 20
-25.8647433746102
 30
0.0
 10
67.62033418448381
 20
-25.04481064912074
 30
0.0
 10
68.41821829886767
 20
-24.61520724211009
 30
0.0
 10
69.26708982643324
 20
-24.82019042348245
 30
0.0
 10
69.82140569000993
 20
-24.95386012831015
 30
0.0
 10
70.27202417948061
 20
-25.24083658223146
 30
0.0
 10
70.62996960039807
 20
-25.68387586163459
 30
0.0
 10
70.98033581124797
 20
-26.14000650388166
 30
0.0
 10
71.19186467404232
 20
-26.64815808795602
 30
0.0
 10
71.16154783377212
 20
-27.23141275360882
 30
0.0
 10
71.1033257200714
 20
-28.33246527069466
 30
0.0
 10
70.37089841990728
 20
-28.93914658564716
 30
0.0
 10
69.27329099830668
 20
-28.80823295720766
 30
0.0
 10
67.94245061235466
 20
-28.64975856488617
 30
0.0
 10
66.9320041065309
 20
-27.10635578749424
 30
0.0
 10
67.3471381125035
 20
-25.8647433746102
 30
0.0
  0
HATCH
  5
4F
330
3C
100
AcDbEntity
  8
Layer 1
 62
     2
420
 16773376
100
AcDbHatch
 10
0.0
 20
0.0
 30
0.0
210
0.0
220
0.0
230
1.0
  2
SOLID
 70
     1
 71
     0
 91
        3
 92
        1
 93
        1
 72
     4
 94
        3
 73
     0
 74
     1
 95
      134
 96
      130
 40
0.0
 40
0.0
 40
0.0
 40
0.0
 40
1.0
 40
1.0
 40
1.0
 40
2.0
 40
2.0
 40
2.0
 40
3.0
 40
3.0
 40
3.0
 40
4.0
 40
4.0
 40
4.0
 40
5.0
 40
5.0
 40
5.0
 40
6.0
 40
6.0
 40
6.0
 40
7.0
 40
7.0
 40
7.0
 40
8.0
 40
8.0
 40
8.0
 40
9.0
 40
9.0
 40
9.0
 40
10.0
 40
10.0
 40
10.0
 40
11.0
 40
11.0
 40
11.0
 40
12.0
 40
12.0
 40
12.0
 40
13.0
 40
13.0
 40
13.0
 40
14.0
 40
14.0
 40
14.0
 40
15.0
 40
15.0
 40
15.0
 40
16.0
 40
16.0
 40
16.0
 40
17.0
 40
17.0
 40
17.0
 40
18.0
 40
18.0
 40
18.0
 40
19.0
 40
19.0
 40
19.0
 40
20.0
 40
20.0
 40
20.0
 40
21.0
 40
21.0
 40
21.0
 40
22.0
 40
22.0
 40
22.0
 40
23.0
 40
23.0
 40
23.0
 40
24.0
 40
24.0
 40
24.0
 40
25.0
 40
25.0
 40
25.0
 40
26.0
 40
26.0
 40
26.0
 40
27.0
 40
27.0
 40
27.0
 40
28.0
 40
28.0
 40
28.0
 40
29.0
 40
29.0
 40
29.0
 40
30.0
 40
30.0
 40
30.0
 40
31.0
 40
31.0
 40
31.0
 40
32.0
 40
32.0
 40
32.0
 40
33.0
 40
33.0
 40
33.0
 40
34.0
 40
34.0
 40
34.0
 40
35.0
 40
35.0
 40
35.0
 40
36.0
 40
36.0
 40
36.0
 40
37.0
 40
37.0
 40
37.0
 40
38.0
 40
38.0
 40
38.0
 40
39.0
 40
39.0
 40
39.0
 40
40.0
 40
40.0
 40
40.0
 40
41.0
 40
41.0
 40
41.0
 40
42.0
 40
42.0
 40
42.0
 40
43.0
 40
43.0
 40
43.0
 40
43.0
 10
72.27362465641076
 20
-40.81129013736663
 10
71.32553437887
 20
-39.40052353615682
 10
70.53419594590812
 20
-37.90673013375248
 10
69.91028915352938
 20
-36.32784287286248
 10
69.13996580302751
 20
-34.37585177091993
 10
68.63422578579284
 20
-32.37562933218387
 10
68.90604381957905
 20
-30.25069443688177
 10
68.94393986991679
 20
-29.95510524424733
 10
69.02558863291722
 20
-29.66468369484078
 10
69.08105467022973
 20
-29.37081704994896
 10
69.11722817282487
 20
-29.17582464548382
 10
69.21472437505743
 20
-29.0983099970657
 10
69.42315265191505
 20
-29.10726724532735
 10
69.82071667091287
 20
-29.12483723230212
 10
70.20381128887266
 20
-29.05524630350008
 10
70.55348848062552
 20
-28.84475096935131
 10
71.0909233763245
 20
-28.52125650328635
 10
71.36067435281956
 20
-28.0255072629589
 10
71.42819822433046
 20
-27.42399359123428
 10
71.45713702640656
 20
-27.16009927706414
 10
71.55911185276995
 20
-27.08120659045192
 10
71.81335989958139
 20
-27.06949326580207
 10
71.8578016313411
 20
-27.06742620851092
 10
71.90189885355231
 20
-27.06811522760797
 10
71.94634058531203
 20
-27.06673718941387
 10
71.16292587196622
 20
-26.12071396916427
 10
70.33231335047248
 20
-25.21534287564061
 10
69.45967066405869
 20
-24.35234645658553
 10
69.40351560764913
 20
-24.49807399561159
 10
69.30739744361065
 20
-24.56077473344314
 10
69.10861543411174
 20
-24.52597926904212
 10
68.73275551667098
 20
-24.45983343572532
 10
68.3648193188463
 20
-24.52942436452737
 10
68.02134329896688
 20
-24.68927679504296
 10
67.82600638495322
 20
-24.78022731585355
 10
67.70611706206653
 20
-24.73888617003056
 10
67.57382539543293
 20
-24.57352158673856
 10
66.79730087305762
 20
-23.60579426493189
 10
66.08864473174174
 20
-22.58880207768613
 10
65.38377819545961
 20
-21.56974283314923
 10
65.27284612083457
 20
-21.40920138353659
 10
65.17466089950494
 20
-21.23935817611377
 10
64.94969616431814
 20
-21.04884439577946
 10
65.06717392036515
 20
-21.60074869251648
 10
65.2897270887123
 20
-22.02139485126549
 10
65.53053926313126
 20
-22.42205945620004
 10
66.0400688853997
 20
-23.26851941692593
 10
66.66294214913287
 20
-24.02540689503532
 10
67.46633841629314
 20
-24.61486273256156
 10
67.66546493534058
 20
-24.76127929068468
 10
67.70611706206653
 20
-24.86256509795103
 10
67.50630152392203
 20
-25.06927082706602
 10
67.23310545194173
 20
-25.35142414730798
 10
67.02433266553558
 20
-25.70006781041526
 10
67.01193032178868
 20
-26.11003417315999
 10
67.00228405442999
 20
-26.41699218089575
 10
66.87309297373312
 20
-26.50484211576962
 10
66.57784829064721
 20
-26.52206759319587
 10
65.27043455399489
 20
-26.59854871296842
 10
64.03054468885348
 20
-26.31053873040153
 10
62.82717283585571
 20
-25.84269476350461
 10
61.06948511928124
 20
-25.15815429058546
 10
59.50678980717192
 20
-24.14150661288824
 10
58.03573403497023
 20
-22.97327473384001
 10
57.37289766360816
 20
-22.44755316279089
 10
56.7403781325163
 20
-21.88875867508337
 10
56.12577309794773
 20
-21.30584851897909
 10
55.89529620998452
 20
-21.08742946521425
 10
55.85877819784086
 20
-20.89691568487994
 10
55.97625595388789
 20
-20.62854274657898
 10
56.38208820205031
 20
-19.70043402285267
 10
56.81927081912852
 20
-18.78851724790704
 10
57.39391274606819
 20
-17.9496364972487
 10
57.67641057585868
 20
-17.53656954856725
 10
57.98543564088559
 20
-17.14727375873402
 10
58.30755206875645
 20
-16.77072482219621
 10
53.76622720010011
 20
-14.77773708397918
 10
48.74879013538225
 20
-13.6694498663743
 10
43.47159287107655
 20
-13.6694498663743
 10
32.8572536810218
 20
-13.6694498663743
 10
23.28918998983742
 20
-18.14566243035942
 10
16.54851616339759
 20
-25.31180554922761
 10
16.54851616339759
 20
-25.31180554922761
 10
17.75981173601144
 20
-26.4507541166512
 10
17.75981173601144
 20
-26.4507541166512
 10
19.1175238667484
 20
-24.61692978985271
 10
21.29000107974694
 20
-23.42251518511659
 10
23.74704317982713
 20
-23.42251518511659
 10
27.86358777515216
 20
-23.42251518511659
 10
31.20016275261663
 20
-26.75977918167811
 10
31.20016275261663
 20
-30.87597926745462
 10
31.20016275261663
 20
-33.16834580333986
 10
30.16353352110495
 20
-35.21645506932089
 10
28.5357259043244
 20
-36.58381346741655
 10
28.5357259043244
 20
-36.58381346741655
 10
43.47159287107655
 20
-50.62808972258603
 10
43.47159287107655
 20
-50.62808972258603
 10
43.47159287107655
 20
-50.62808972258603
 10
43.47193738062507
 20
-50.62808972258603
 10
43.47193738062507
 20
-50.62808972258603
 10
43.47193738062507
 20
-50.62808972258603
 10
28.74966633395842
 20
-66.28467066485244
 10
28.74966633395842
 20
-66.28467066485244
 10
30.25138345597882
 20
-67.64823945791433
 10
31.20016275261663
 20
-69.60987682721559
 10
31.20016275261663
 20
-71.79820147944629
 10
31.20016275261663
 20
-75.91474607477132
 10
27.86358777515216
 20
-79.25132105223578
 10
23.74704317982713
 20
-79.25132105223578
 10
21.7237386013399
 20
-79.25132105223578
 10
19.89129231273551
 20
-78.4420681227506
 10
18.54839409258512
 20
-77.13362085745271
 10
18.54839409258512
 20
-77.13362085745271
 10
18.15496418816959
 20
-77.55185544936204
 10
18.15496418816959
 20
-77.55185544936204
 10
24.76954751984928
 20
-83.77369789572325
 10
33.67443033012306
 20
-87.58741859789481
 10
43.47159287107655
 20
-87.58741859789481
 10
63.88309460208478
 20
-87.58741859789481
 10
80.4305772368368
 20
-71.04028047269132
 10
80.4305772368368
 20
-50.62808972258603
 10
80.4305772368368
 20
-46.40061305263596
 10
79.71882050958419
 20
-42.33987900417198
 10
78.4117512824804
 20
-38.55681965181913
 10
76.7460476153621
 20
-39.8387396818806
 10
74.85021156982911
 20
-40.61870929974116
 10
72.78349878822775
 20
-41.03694389165049
 10
72.54234210426026
 20
-41.08517522844399
 10
72.40901690898109
 20
-41.01282822325374
 10
72.27362465641076
 20
-40.81129013736663
 97
        0
 92
        1
 93
        1
 72
     4
 94
        3
 73
     0
 74
     1
 95
       17
 96
       13
 40
0.0
 40
0.0
 40
0.0
 40
0.0
 40
1.0
 40
1.0
 40
1.0
 40
2.0
 40
2.0
 40
2.0
 40
3.0
 40
3.0
 40
3.0
 40
4.0
 40
4.0
 40
4.0
 40
4.0
 10
43.2931369249406
 20
-37.81991372752419
 10
40.58666991172834
 20
-37.81991372752419
 10
38.39352212581829
 20
-35.62538790342004
 10
38.39352212581829
 20
-32.91960990930482
 10
38.39352212581829
 20
-30.21348740564108
 10
40.58666991172834
 20
-28.01930609108545
 10
43.2931369249406
 20
-28.01930609108545
 10
45.99925942860435
 20
-28.01930609108545
 10
48.19275172406292
 20
-30.21348740564108
 10
48.19275172406292
 20
-32.91960990930482
 10
48.19275172406292
 20
-35.62538790342004
 10
45.99925942860435
 20
-37.81991372752419
 10
43.2931369249406
 20
-37.81991372752419
 97
        0
 92
        1
 93
        1
 72
     4
 94
        3
 73
     0
 74
     1
 95
       20
 96
       16
 40
0.0
 40
0.0
 40
0.0
 40
0.0
 40
1.0
 40
1.0
 40
1.0
 40
2.0
 40
2.0
 40
2.0
 40
3.0
 40
3.0
 40
3.0
 40
4.0
 40
4.0
 40
4.0
 40
5.0
 40
5.0
 40
5.0
 40
5.0
 10
67.3471381125035
 20
-25.8647433746102
 10
67.62033418448381
 20
-25.04481064912074
 10
68.41821829886767
 20
-24.61520724211009
 10
69.26708982643324
 20
-24.82019042348245
 10
69.82140569000993
 20
-24.95386012831015
 10
70.27202417948061
 20
-25.24083658223146
 10
70.62996960039807
 20
-25.68387586163459
 10
70.98033581124797
 20
-26.14000650388166
 10
71.19186467404232
 20
-26.64815808795602
 10
71.16154783377212
 20
-27.23141275360882
 10
71.1033257200714
 20
-28.33246527069466
 10
70.37089841990728
 20
-28.93914658564716
 10
69.27329099830668
 20
-28.80823295720766
 10
67.94245061235466
 20
-28.64975856488617
 10
66.9320041065309
 20
-27.10635578749424
 10
67.3471381125035
 20
-25.8647433746102
 97
        0
 75
     2
 76
     1
 98
        0
  0
SPLINE
  5
50
330
3C
100
AcDbEntity
  8
Layer 1
370
     0
100
AcDbSpline
210
0.0
220
0.0
230
1.0
 70
    11
 71
     3
 72
    17
 73
    13
 74
     0
 42
0.0000000001
 43
0.0000000001
 40
0.0
 40
0.0
 40
0.0
 40
0.0
 40
1.0
 40
1.0
 40
1.0
 40
2.0
 40
2.0
 40
2.0
 40
3.0
 40
3.0
 40
3.0
 40
4.0
 40
4.0
 40
4.0
 40
4.0
 10
43.2931369249406
 20
-28.01930609108545
 30
0.0
 10
40.58666991172834
 20
-28.01930609108545
 30
0.0
 10
38.39352212581829
 20
-30.21348740564108
 30
0.0
 10
38.39352212581829
 20
-32.91960990930482
 30
0.0
 10
38.39352212581829
 20
-35.62538790342004
 30
0.0
 10
40.58666991172834
 20
-37.81991372752419
 30
0.0
 10
43.2931369249406
 20
-37.81991372752419
 30
0.0
 10
45.99925942860435
 20
-37.81991372752419
 30
0.0
 10
48.19275172406292
 20
-35.62538790342004
 30
0.0
 10
48.19275172406292
 20
-32.91960990930482
 30
0.0
 10
48.19275172406292
 20
-30.21348740564108
 30
0.0
 10
45.99925942860435
 20
-28.01930609108545
 30
0.0
 10
43.2931369249406
 20
-28.01930609108545
 30
0.0
  0
SPLINE
  5
51
330
3C
100
AcDbEntity
  8
Layer 1
370
     0
100
AcDbSpline
210
0.0
220
0.0
230
1.0
 70
    11
 71
     3
 72
    17
 73
    13
 74
     0
 42
0.0000000001
 43
0.0000000001
 40
0.0
 40
0.0
 40
0.0
 40
0.0
 40
1.0
 40
1.0
 40
1.0
 40
2.0
 40
2.0
 40
2.0
 40
3.0
 40
3.0
 40
3.0
 40
4.0
 40
4.0
 40
4.0
 40
4.0
 10
41.39213323617975
 20
-34.55637477434702
 30
0.0
 10
40.34206813227559
 20
-34.55637477434702
 30
0.0
 10
39.49112954741889
 20
-33.70474717039326
 30
0.0
 10
39.49112954741889
 20
-32.65502657603763
 30
0.0
 10
39.49112954741889
 20
-31.60496147213348
 30
0.0
 10
40.34206813227559
 20
-30.75367837772825
 30
0.0
 10
41.39213323617975
 20
-30.75367837772825
 30
0.0
 10
42.4421983400839
 20
-30.75367837772825
 30
0.0
 10
43.2931369249406
 20
-31.60496147213348
 30
0.0
 10
43.2931369249406
 20
-32.65502657603763
 30
0.0
 10
43.2931369249406
 20
-33.70474717039326
 30
0.0
 10
42.4421983400839
 20
-34.55637477434702
 30
0.0
 10
41.39213323617975
 20
-34.55637477434702
 30
0.0
  0
HATCH
  5
52
330
3C
100
AcDbEntity
  8
Layer 1
 62
     7
420
 16777215
100
AcDbHatch
 10
0.0
 20
0.0
 30
0.0
210
0.0
220
0.0
230
1.0
  2
SOLID
 70
     1
 71
     0
 91
        2
 92
        1
 93
        1
 72
     4
 94
        3
 73
     0
 74
     1
 95
       17
 96
       13
 40
0.0
 40
0.0
 40
0.0
 40
0.0
 40
1.0
 40
1.0
 40
1.0
 40
2.0
 40
2.0
 40
2.0
 40
3.0
 40
3.0
 40
3.0
 40
4.0
 40
4.0
 40
4.0
 40
4.0
 10
43.2931369249406
 20
-28.01930609108545
 10
40.58666991172834
 20
-28.01930609108545
 10
38.39352212581829
 20
-30.21348740564108
 10
38.39352212581829
 20
-32.91960990930482
 10
38.39352212581829
 20
-35.62538790342004
 10
40.58666991172834
 20
-37.81991372752419
 10
43.2931369249406
 20
-37.81991372752419
 10
45.99925942860435
 20
-37.81991372752419
 10
48.19275172406292
 20
-35.62538790342004
 10
48.19275172406292
 20
-32.91960990930482
 10
48.19275172406292
 20
-30.21348740564108
 10
45.99925942860435
 20
-28.01930609108545
 10
43.2931369249406
 20
-28.01930609108545
 97
        0
 92
        1
 93
        1
 72
     4
 94
        3
 73
     0
 74
     1
 95
       17
 96
       13
 40
0.0
 40
0.0
 40
0.0
 40
0.0
 40
1.0
 40
1.0
 40
1.0
 40
2.0
 40
2.0
 40
2.0
 40
3.0
 40
3.0
 40
3.0
 40
4.0
 40
4.0
 40
4.0
 40
4.0
 10
41.39213323617975
 20
-34.55637477434702
 10
40.34206813227559
 20
-34.55637477434702
 10
39.49112954741889
 20
-33.70474717039326
 10
39.49112954741889
 20
-32.65502657603763
 10
39.49112954741889
 20
-31.60496147213348
 10
40.34206813227559
 20
-30.75367837772825
 10
41.39213323617975
 20
-30.75367837772825
 10
42.4421983400839
 20
-30.75367837772825
 10
43.2931369249406
 20
-31.60496147213348
 10
43.2931369249406
 20
-32.65502657603763
 10
43.2931369249406
 20
-33.70474717039326
 10
42.4421983400839
 20
-34.55637477434702
 10
41.39213323617975
 20
-34.55637477434702
 97
        0
 75
     2
 76
     1
 98
        0
  0
SPLINE
  5
53
330
3C
100
AcDbEntity
  8
Layer 1
370
     0
100
AcDbSpline
210
0.0
220
0.0
230
1.0
 70
    11
 71
     3
 72
    17
 73
    13
 74
     0
 42
0.0000000001
 43
0.0000000001
 40
0.0
 40
0.0
 40
0.0
 40
0.0
 40
1.0
 40
1.0
 40
1.0
 40
2.0
 40
2.0
 40
2.0
 40
3.0
 40
3.0
 40
3.0
 40
4.0
 40
4.0
 40
4.0
 40
4.0
 10
41.39213323617975
 20
-30.75367837772825
 30
0.0
 10
40.34206813227559
 20
-30.75367837772825
 30
0.0
 10
39.49112954741889
 20
-31.60496147213348
 30
0.0
 10
39.49112954741889
 20
-32.65502657603763
 30
0.0
 10
39.49112954741889
 20
-33.70474717039326
 30
0.0
 10
40.34206813227559
 20
-34.55637477434702
 30
0.0
 10
41.39213323617975
 20
-34.55637477434702
 30
0.0
 10
42.4421983400839
 20
-34.55637477434702
 30
0.0
 10
43.2931369249406
 20
-33.70474717039326
 30
0.0
 10
43.2931369249406
 20
-32.65502657603763
 30
0.0
 10
43.2931369249406
 20
-31.60496147213348
 30
0.0
 10
42.4421983400839
 20
-30.75367837772825
 30
0.0
 10
41.39213323617975
 20
-30.75367837772825
 30
0.0
  0
SPLINE
  5
54
330
3C
100
AcDbEntity
  8
Layer 1
370
     0
100
AcDbSpline
210
0.0
220
0.0
230
1.0
 70
    11
 71
     3
 72
    17
 73
    13
 74
     0
 42
0.0000000001
 43
0.0000000001
 40
0.0
 40
0.0
 40
0.0
 40
0.0
 40
1.0
 40
1.0
 40
1.0
 40
2.0
 40
2.0
 40
2.0
 40
3.0
 40
3.0
 40
3.0
 40
4.0
 40
4.0
 40
4.0
 40
4.0
 10
31.20016275261663
 20
-30.87597926745462
 30
0.0
 10
31.20016275261663
 20
-26.75977918167811
 30
0.0
 10
27.86358777515216
 20
-23.42251518511659
 30
0.0
 10
23.74704317982713
 20
-23.42251518511659
 30
0.0
 10
21.29000107974694
 20
-23.42251518511659
 30
0.0
 10
19.1175238667484
 20
-24.61692978985271
 30
0.0
 10
17.75981173601144
 20
-26.4507541166512
 30
0.0
 10
17.75981173601144
 20
-26.4507541166512
 30
0.0
 10
28.5357259043244
 20
-36.58381346741655
 30
0.0
 10
28.5357259043244
 20
-36.58381346741655
 30
0.0
 10
30.16353352110495
 20
-35.21645506932089
 30
0.0
 10
31.20016275261663
 20
-33.16834580333986
 30
0.0
 10
31.20016275261663
 20
-30.87597926745462
 30
0.0
  0
HATCH
  5
55
330
3C
100
AcDbEntity
  8
Layer 1
 62
   240
420
 15539236
100
AcDbHatch
 10
0.0
 20
0.0
 30
0.0
210
0.0
220
0.0
230
1.0
  2
SOLID
 70
     1
 71
     0
 91
        1
 92
        1
 93
        1
 72
     4
 94
        3
 73
     0
 74
     1
 95
       17
 96
       13
 40
0.0
 40
0.0
 40
0.0
 40
0.0
 40
1.0
 40
1.0
 40
1.0
 40
2.0
 40
2.0
 40
2.0
 40
3.0
 40
3.0
 40
3.0
 40
4.0
 40
4.0
 40
4.0
 40
4.0
 10
31.20016275261663
 20
-30.87597926745462
 10
31.20016275261663
 20
-26.75977918167811
 10
27.86358777515216
 20
-23.42251518511659
 10
23.74704317982713
 20
-23.42251518511659
 10
21.29000107974694
 20
-23.42251518511659
 10
19.1175238667484
 20
-24.61692978985271
 10
17.75981173601144
 20
-26.4507541166512
 10
17.75981173601144
 20
-26.4507541166512
 10
28.5357259043244
 20
-36.58381346741655
 10
28.5357259043244
 20
-36.58381346741655
 10
30.16353352110495
 20
-35.21645506932089
 10
31.20016275261663
 20
-33.16834580333986
 10
31.20016275261663
 20
-30.87597926745462
 97
        0
 75
     2
 76
     1
 98
        0
  0
SPLINE
  5
56
330
3C
100
AcDbEntity
  8
Layer 1
370
     0
100
AcDbSpline
210
0.0
220
0.0
230
1.0
 70
    11
 71
     3
 72
    17
 73
    13
 74
     0
 42
0.0000000001
 43
0.0000000001
 40
0.0
 40
0.0
 40
0.0
 40
0.0
 40
1.0
 40
1.0
 40
1.0
 40
2.0
 40
2.0
 40
2.0
 40
3.0
 40
3.0
 40
3.0
 40
4.0
 40
4.0
 40
4.0
 40
4.0
 10
31.20016275261663
 20
-71.79820147944629
 30
0.0
 10
31.20016275261663
 20
-69.60987682721559
 30
0.0
 10
30.25138345597882
 20
-67.64823945791433
 30
0.0
 10
28.74966633395842
 20
-66.28467066485244
 30
0.0
 10
28.74966633395842
 20
-66.28467066485244
 30
0.0
 10
18.54839409258512
 20
-77.13362085745271
 30
0.0
 10
18.54839409258512
 20
-77.13362085745271
 30
0.0
 10
19.89129231273551
 20
-78.4420681227506
 30
0.0
 10
21.7237386013399
 20
-79.25132105223578
 30
0.0
 10
23.74704317982713
 20
-79.25132105223578
 30
0.0
 10
27.86358777515216
 20
-79.25132105223578
 30
0.0
 10
31.20016275261663
 20
-75.91474607477132
 30
0.0
 10
31.20016275261663
 20
-71.79820147944629
 30
0.0
  0
HATCH
  5
57
330
3C
100
AcDbEntity
  8
Layer 1
 62
   240
420
 15539236
100
AcDbHatch
 10
0.0
 20
0.0
 30
0.0
210
0.0
220
0.0
230
1.0
  2
SOLID
 70
     1
 71
     0
 91
        1
 92
        1
 93
        1
 72
     4
 94
        3
 73
     0
 74
     1
 95
       17
 96
       13
 40
0.0
 40
0.0
 40
0.0
 40
0.0
 40
1.0
 40
1.0
 40
1.0
 40
2.0
 40
2.0
 40
2.0
 40
3.0
 40
3.0
 40
3.0
 40
4.0
 40
4.0
 40
4.0
 40
4.0
 10
31.20016275261663
 20
-71.79820147944629
 10
31.20016275261663
 20
-69.60987682721559
 10
30.25138345597882
 20
-67.64823945791433
 10
28.74966633395842
 20
-66.28467066485244
 10
28.74966633395842
 20
-66.28467066485244
 10
18.54839409258512
 20
-77.13362085745271
 10
18.54839409258512
 20
-77.13362085745271
 10
19.89129231273551
 20
-78.4420681227506
 10
21.7237386013399
 20
-79.25132105223578
 10
23.74704317982713
 20
-79.25132105223578
 10
27.86358777515216
 20
-79.25132105223578
 10
31.20016275261663
 20
-75.91474607477132
 10
31.20016275261663
 20
-71.79820147944629
 97
        0
 75
     2
 76
     1
 98
        0
  0
SPLINE
  5
58
330
3C
100
AcDbEntity
  8
Layer 1
370
     0
100
AcDbSpline
210
0.0
220
0.0
230
1.0
 70
    11
 71
     3
 72
    56
 73
    52
 74
     0
 42
0.0000000001
 43
0.0000000001
 40
0.0
 40
0.0
 40
0.0
 40
0.0
 40
1.0
 40
1.0
 40
1.0
 40
2.0
 40
2.0
 40
2.0
 40
3.0
 40
3.0
 40
3.0
 40
4.0
 40
4.0
 40
4.0
 40
5.0
 40
5.0
 40
5.0
 40
6.0
 40
6.0
 40
6.0
 40
7.0
 40
7.0
 40
7.0
 40
8.0
 40
8.0
 40
8.0
 40
9.0
 40
9.0
 40
9.0
 40
10.0
 40
10.0
 40
10.0
 40
11.0
 40
11.0
 40
11.0
 40
12.0
 40
12.0
 40
12.0
 40
13.0
 40
13.0
 40
13.0
 40
14.0
 40
14.0
 40
14.0
 40
15.0
 40
15.0
 40
15.0
 40
16.0
 40
16.0
 40
16.0
 40
17.0
 40
17.0
 40
17.0
 40
17.0
 10
82.91655813899308
 20
-31.07510578650206
 30
0.0
 10
82.35810816083409
 20
-30.6854654871203
 30
0.0
 10
81.83169757068791
 20
-30.25482855146407
 30
0.0
 10
81.25464407690856
 20
-29.88689235363939
 30
0.0
 10
79.69332680299334
 20
-28.89332681569334
 30
0.0
 10
78.04002547962195
 20
-28.11301268828425
 30
0.0
 10
76.25374347051991
 20
-27.62036403389352
 30
0.0
 10
74.84297686931009
 20
-27.23175726315734
 30
0.0
 10
73.41222871428583
 20
-27.01678330487775
 30
0.0
 10
71.94634058531203
 20
-27.06673718941387
 30
0.0
 10
71.90189885355231
 20
-27.06811522760797
 30
0.0
 10
71.8578016313411
 20
-27.06742620851092
 30
0.0
 10
71.81335989958139
 20
-27.06949326580207
 30
0.0
 10
71.55911185276995
 20
-27.08120659045192
 30
0.0
 10
71.45713702640656
 20
-27.16009927706414
 30
0.0
 10
71.42819822433046
 20
-27.42399359123428
 30
0.0
 10
71.36067435281956
 20
-28.0255072629589
 30
0.0
 10
71.0909233763245
 20
-28.52125650328635
 30
0.0
 10
70.55348848062552
 20
-28.84475096935131
 30
0.0
 10
70.20381128887266
 20
-29.05524630350008
 30
0.0
 10
69.82071667091287
 20
-29.12483723230212
 30
0.0
 10
69.42315265191505
 20
-29.10726724532735
 30
0.0
 10
69.21472437505743
 20
-29.0983099970657
 30
0.0
 10
69.11722817282487
 20
-29.17582464548382
 30
0.0
 10
69.08105467022973
 20
-29.37081704994896
 30
0.0
 10
69.02558863291722
 20
-29.66468369484078
 30
0.0
 10
68.94393986991679
 20
-29.95510524424733
 30
0.0
 10
68.90604381957905
 20
-30.25069443688177
 30
0.0
 10
68.63422578579284
 20
-32.37562933218387
 30
0.0
 10
69.13996580302751
 20
-34.37585177091993
 30
0.0
 10
69.91028915352938
 20
-36.32784287286248
 30
0.0
 10
70.53419594590812
 20
-37.90673013375248
 30
0.0
 10
71.32553437887
 20
-39.40052353615682
 30
0.0
 10
72.27362465641076
 20
-40.81129013736663
 30
0.0
 10
72.40901690898109
 20
-41.01282822325374
 30
0.0
 10
72.54234210426026
 20
-41.08517522844399
 30
0.0
 10
72.78349878822775
 20
-41.03694389165049
 30
0.0
 10
74.85021156982911
 20
-40.61870929974116
 30
0.0
 10
76.7460476153621
 20
-39.8387396818806
 30
0.0
 10
78.4117512824804
 20
-38.55681965181913
 30
0.0
 10
78.55472274511827
 20
-38.44692110583966
 30
0.0
 10
78.69907224595023
 20
-38.33977863624839
 30
0.0
 10
78.83825410355433
 20
-38.22230088020137
 30
0.0
 10
80.04403752339178
 20
-37.18050400546182
 30
0.0
 10
81.05620657695817
 20
-35.9805772479493
 30
0.0
 10
81.80241425906328
 20
-34.56464300351162
 30
0.0
 10
82.3084987858465
 20
-33.60380587267544
 30
0.0
 10
82.76359589944799
 20
-32.62264267847628
 30
0.0
 10
83.03575844278274
 20
-31.56568738360163
 30
0.0
 10
83.08571232731886
 20
-31.37241752687912
 30
0.0
 10
83.11223956255527
 20
-31.21187607726648
 30
0.0
 10
82.91655813899308
 20
-31.07510578650206
 30
0.0
  0
SPLINE
  5
59
330
3C
100
AcDbEntity
  8
Layer 1
370
     0
100
AcDbSpline
210
0.0
220
0.0
230
1.0
 70
    11
 71
     3
 72
    11
 73
     7
 74
     0
 42
0.0000000001
 43
0.0000000001
 40
0.0
 40
0.0
 40
0.0
 40
0.0
 40
1.0
 40
1.0
 40
1.0
 40
2.0
 40
2.0
 40
2.0
 40
2.0
 10
70.15144583749687
 20
-29.87138942395577
 30
0.0
 10
70.70128307694274
 20
-31.50574272215829
 30
0.0
 10
71.38203394482811
 20
-33.08876409763059
 30
0.0
 10
72.01110838043472
 20
-34.69176702691734
 30
0.0
 10
70.94416230865285
 20
-33.26101887189308
 30
0.0
 10
70.22413735223563
 20
-31.69315591655588
 30
0.0
 10
70.15144583749687
 20
-29.87138942395577
 30
0.0
  0
SPLINE
  5
5A
330
3C
100
AcDbEntity
  8
Layer 1
370
     0
100
AcDbSpline
210
0.0
220
0.0
230
1.0
 70
    11
 71
     3
 72
    11
 73
     7
 74
     0
 42
0.0000000001
 43
0.0000000001
 40
0.0
 40
0.0
 40
0.0
 40
0.0
 40
1.0
 40
1.0
 40
1.0
 40
2.0
 40
2.0
 40
2.0
 40
2.0
 10
71.04579262546773
 20
-28.85405272716149
 30
0.0
 10
72.10378144898795
 20
-29.97233072167359
 30
0.0
 10
73.1469563619216
 20
-31.10576713632078
 30
0.0
 10
74.24318574532809
 20
-32.19028319507743
 30
0.0
 10
72.78901094100414
 20
-31.45131021349134
 30
0.0
 10
71.76064993865707
 20
-30.30340439780609
 30
0.0
 10
71.04579262546773
 20
-28.85405272716149
 30
0.0
  0
SPLINE
  5
5B
330
3C
100
AcDbEntity
  8
Layer 1
370
     0
100
AcDbSpline
210
0.0
220
0.0
230
1.0
 70
    11
 71
     3
 72
    20
 73
    16
 74
     0
 42
0.0000000001
 43
0.0000000001
 40
0.0
 40
0.0
 40
0.0
 40
0.0
 40
1.0
 40
1.0
 40
1.0
 40
2.0
 40
2.0
 40
2.0
 40
3.0
 40
3.0
 40
3.0
 40
4.0
 40
4.0
 40
4.0
 40
5.0
 40
5.0
 40
5.0
 40
5.0
 10
75.13339841871665
 20
-29.66571722348635
 30
0.0
 10
74.52878416105531
 20
-29.34773491019779
 30
0.0
 10
73.90935599280739
 20
-29.05765787033975
 30
0.0
 10
73.27924802855519
 20
-28.77757160738894
 30
0.0
 10
72.89339733420721
 20
-28.6060058522235
 30
0.0
 10
72.50410154437398
 20
-28.43754068299478
 30
0.0
 10
72.10894909221582
 20
-28.27114257105722
 30
0.0
 10
72.29636228661342
 20
-28.21567653374469
 30
0.0
 10
72.59298500789342
 20
-28.24737141220899
 30
0.0
 10
72.95575356249023
 20
-28.34280055715041
 30
0.0
 10
74.50880260724085
 20
-28.75104437215252
 30
0.0
 10
77.28175996331845
 20
-30.33647731446449
 30
0.0
 10
77.97525768449924
 20
-31.35760361629254
 30
0.0
 10
77.04163680799654
 20
-30.76366915463547
 30
0.0
 10
76.10836044104236
 20
-30.17903645078858
 30
0.0
 10
75.13339841871665
 20
-29.66571722348635
 30
0.0
  0
HATCH
  5
5C
330
3C
100
AcDbEntity
  8
Layer 1
 62
   240
420
 15539236
100
AcDbHatch
 10
0.0
 20
0.0
 30
0.0
210
0.0
220
0.0
230
1.0
  2
SOLID
 70
     1
 71
     0
 91
        4
 92
        1
 93
        1
 72
     4
 94
        3
 73
     0
 74
     1
 95
       56
 96
       52
 40
0.0
 40
0.0
 40
0.0
 40
0.0
 40
1.0
 40
1.0
 40
1.0
 40
2.0
 40
2.0
 40
2.0
 40
3.0
 40
3.0
 40
3.0
 40
4.0
 40
4.0
 40
4.0
 40
5.0
 40
5.0
 40
5.0
 40
6.0
 40
6.0
 40
6.0
 40
7.0
 40
7.0
 40
7.0
 40
8.0
 40
8.0
 40
8.0
 40
9.0
 40
9.0
 40
9.0
 40
10.0
 40
10.0
 40
10.0
 40
11.0
 40
11.0
 40
11.0
 40
12.0
 40
12.0
 40
12.0
 40
13.0
 40
13.0
 40
13.0
 40
14.0
 40
14.0
 40
14.0
 40
15.0
 40
15.0
 40
15.0
 40
16.0
 40
16.0
 40
16.0
 40
17.0
 40
17.0
 40
17.0
 40
17.0
 10
82.91655813899308
 20
-31.07510578650206
 10
82.35810816083409
 20
-30.6854654871203
 10
81.83169757068791
 20
-30.25482855146407
 10
81.25464407690856
 20
-29.88689235363939
 10
79.69332680299334
 20
-28.89332681569334
 10
78.04002547962195
 20
-28.11301268828425
 10
76.25374347051991
 20
-27.62036403389352
 10
74.84297686931009
 20
-27.23175726315734
 10
73.41222871428583
 20
-27.01678330487775
 10
71.94634058531203
 20
-27.06673718941387
 10
71.90189885355231
 20
-27.06811522760797
 10
71.8578016313411
 20
-27.06742620851092
 10
71.81335989958139
 20
-27.06949326580207
 10
71.55911185276995
 20
-27.08120659045192
 10
71.45713702640656
 20
-27.16009927706414
 10
71.42819822433046
 20
-27.42399359123428
 10
71.36067435281956
 20
-28.0255072629589
 10
71.0909233763245
 20
-28.52125650328635
 10
70.55348848062552
 20
-28.84475096935131
 10
70.20381128887266
 20
-29.05524630350008
 10
69.82071667091287
 20
-29.12483723230212
 10
69.42315265191505
 20
-29.10726724532735
 10
69.21472437505743
 20
-29.0983099970657
 10
69.11722817282487
 20
-29.17582464548382
 10
69.08105467022973
 20
-29.37081704994896
 10
69.02558863291722
 20
-29.66468369484078
 10
68.94393986991679
 20
-29.95510524424733
 10
68.90604381957905
 20
-30.25069443688177
 10
68.63422578579284
 20
-32.37562933218387
 10
69.13996580302751
 20
-34.37585177091993
 10
69.91028915352938
 20
-36.32784287286248
 10
70.53419594590812
 20
-37.90673013375248
 10
71.32553437887
 20
-39.40052353615682
 10
72.27362465641076
 20
-40.81129013736663
 10
72.40901690898109
 20
-41.01282822325374
 10
72.54234210426026
 20
-41.08517522844399
 10
72.78349878822775
 20
-41.03694389165049
 10
74.85021156982911
 20
-40.61870929974116
 10
76.7460476153621
 20
-39.8387396818806
 10
78.4117512824804
 20
-38.55681965181913
 10
78.55472274511827
 20
-38.44692110583966
 10
78.69907224595023
 20
-38.33977863624839
 10
78.83825410355433
 20
-38.22230088020137
 10
80.04403752339178
 20
-37.18050400546182
 10
81.05620657695817
 20
-35.9805772479493
 10
81.80241425906328
 20
-34.56464300351162
 10
82.3084987858465
 20
-33.60380587267544
 10
82.76359589944799
 20
-32.62264267847628
 10
83.03575844278274
 20
-31.56568738360163
 10
83.08571232731886
 20
-31.37241752687912
 10
83.11223956255527
 20
-31.21187607726648
 10
82.91655813899308
 20
-31.07510578650206
 97
        0
 92
        1
 93
        1
 72
     4
 94
        3
 73
     0
 74
     1
 95
       11
 96
        7
 40
0.0
 40
0.0
 40
0.0
 40
0.0
 40
1.0
 40
1.0
 40
1.0
 40
2.0
 40
2.0
 40
2.0
 40
2.0
 10
70.15144583749687
 20
-29.87138942395577
 10
70.70128307694274
 20
-31.50574272215829
 10
71.38203394482811
 20
-33.08876409763059
 10
72.01110838043472
 20
-34.69176702691734
 10
70.94416230865285
 20
-33.26101887189308
 10
70.22413735223563
 20
-31.69315591655588
 10
70.15144583749687
 20
-29.87138942395577
 97
        0
 92
        1
 93
        1
 72
     4
 94
        3
 73
     0
 74
     1
 95
       11
 96
        7
 40
0.0
 40
0.0
 40
0.0
 40
0.0
 40
1.0
 40
1.0
 40
1.0
 40
2.0
 40
2.0
 40
2.0
 40
2.0
 10
71.04579262546773
 20
-28.85405272716149
 10
72.10378144898795
 20
-29.97233072167359
 10
73.1469563619216
 20
-31.10576713632078
 10
74.24318574532809
 20
-32.19028319507743
 10
72.78901094100414
 20
-31.45131021349134
 10
71.76064993865707
 20
-30.30340439780609
 10
71.04579262546773
 20
-28.85405272716149
 97
        0
 92
        1
 93
        1
 72
     4
 94
        3
 73
     0
 74
     1
 95
       20
 96
       16
 40
0.0
 40
0.0
 40
0.0
 40
0.0
 40
1.0
 40
1.0
 40
1.0
 40
2.0
 40
2.0
 40
2.0
 40
3.0
 40
3.0
 40
3.0
 40
4.0
 40
4.0
 40
4.0
 40
5.0
 40
5.0
 40
5.0
 40
5.0
 10
75.13339841871665
 20
-29.66571722348635
 10
74.52878416105531
 20
-29.34773491019779
 10
73.90935599280739
 20
-29.05765787033975
 10
73.27924802855519
 20
-28.77757160738894
 10
72.89339733420721
 20
-28.6060058522235
 10
72.50410154437398
 20
-28.43754068299478
 10
72.10894909221582
 20
-28.27114257105722
 10
72.29636228661342
 20
-28.21567653374469
 10
72.59298500789342
 20
-28.24737141220899
 10
72.95575356249023
 20
-28.34280055715041
 10
74.50880260724085
 20
-28.75104437215252
 10
77.28175996331845
 20
-30.33647731446449
 10
77.97525768449924
 20
-31.35760361629254
 10
77.04163680799654
 20
-30.76366915463547
 10
76.10836044104236
 20
-30.17903645078858
 10
75.13339841871665
 20
-29.66571722348635
 97
        0
 75
     2
 76
     1
 98
        0
  0
SPLINE
  5
5D
330
3C
100
AcDbEntity
  8
Layer 1
370
     0
100
AcDbSpline
210
0.0
220
0.0
230
1.0
 70
    11
 71
     3
 72
    74
 73
    70
 74
     0
 42
0.0000000001
 43
0.0000000001
 40
0.0
 40
0.0
 40
0.0
 40
0.0
 40
1.0
 40
1.0
 40
1.0
 40
2.0
 40
2.0
 40
2.0
 40
3.0
 40
3.0
 40
3.0
 40
4.0
 40
4.0
 40
4.0
 40
5.0
 40
5.0
 40
5.0
 40
6.0
 40
6.0
 40
6.0
 40
7.0
 40
7.0
 40
7.0
 40
8.0
 40
8.0
 40
8.0
 40
9.0
 40
9.0
 40
9.0
 40
10.0
 40
10.0
 40
10.0
 40
11.0
 40
11.0
 40
11.0
 40
12.0
 40
12.0
 40
12.0
 40
13.0
 40
13.0
 40
13.0
 40
14.0
 40
14.0
 40
14.0
 40
15.0
 40
15.0
 40
15.0
 40
16.0
 40
16.0
 40
16.0
 40
17.0
 40
17.0
 40
17.0
 40
18.0
 40
18.0
 40
18.0
 40
19.0
 40
19.0
 40
19.0
 40
20.0
 40
20.0
 40
20.0
 40
21.0
 40
21.0
 40
21.0
 40
22.0
 40
22.0
 40
22.0
 40
23.0
 40
23.0
 40
23.0
 40
23.0
 10
55.97625595388789
 20
-20.62854274657898
 30
0.0
 10
55.85877819784086
 20
-20.89691568487994
 30
0.0
 10
55.89529620998452
 20
-21.08742946521425
 30
0.0
 10
56.12577309794773
 20
-21.30584851897909
 30
0.0
 10
56.7403781325163
 20
-21.88875867508337
 30
0.0
 10
57.37289766360816
 20
-22.44755316279089
 30
0.0
 10
58.03573403497023
 20
-22.97327473384001
 30
0.0
 10
59.50678980717192
 20
-24.14150661288824
 30
0.0
 10
61.06948511928124
 20
-25.15815429058546
 30
0.0
 10
62.82717283585571
 20
-25.84269476350461
 30
0.0
 10
64.03054468885348
 20
-26.31053873040153
 30
0.0
 10
65.27043455399489
 20
-26.59854871296842
 30
0.0
 10
66.57784829064721
 20
-26.52206759319587
 30
0.0
 10
66.87309297373312
 20
-26.50484211576962
 30
0.0
 10
67.00228405442999
 20
-26.41699218089575
 30
0.0
 10
67.01193032178868
 20
-26.11003417315999
 30
0.0
 10
67.02433266553558
 20
-25.70006781041526
 30
0.0
 10
67.23310545194173
 20
-25.35142414730798
 30
0.0
 10
67.50630152392203
 20
-25.06927082706602
 30
0.0
 10
67.70611706206653
 20
-24.86256509795103
 30
0.0
 10
67.66546493534058
 20
-24.76127929068468
 30
0.0
 10
67.46633841629314
 20
-24.61486273256156
 30
0.0
 10
66.66294214913287
 20
-24.02540689503532
 30
0.0
 10
66.0400688853997
 20
-23.26851941692593
 30
0.0
 10
65.53053926313126
 20
-22.42205945620004
 30
0.0
 10
65.2897270887123
 20
-22.02139485126549
 30
0.0
 10
65.06717392036515
 20
-21.60074869251648
 30
0.0
 10
64.94969616431814
 20
-21.04884439577946
 30
0.0
 10
65.17466089950494
 20
-21.23935817611377
 30
0.0
 10
65.27284612083457
 20
-21.40920138353659
 30
0.0
 10
65.38377819545961
 20
-21.56974283314923
 30
0.0
 10
66.08864473174174
 20
-22.58880207768613
 30
0.0
 10
66.79730087305762
 20
-23.60579426493189
 30
0.0
 10
67.57382539543293
 20
-24.57352158673856
 30
0.0
 10
67.70611706206653
 20
-24.73888617003056
 30
0.0
 10
67.82600638495322
 20
-24.78022731585355
 30
0.0
 10
68.02134329896688
 20
-24.68927679504296
 30
0.0
 10
68.3648193188463
 20
-24.52942436452737
 30
0.0
 10
68.73275551667098
 20
-24.45983343572532
 30
0.0
 10
69.10861543411174
 20
-24.52597926904212
 30
0.0
 10
69.30739744361065
 20
-24.56077473344314
 30
0.0
 10
69.40351560764913
 20
-24.49807399561159
 30
0.0
 10
69.45967066405869
 20
-24.35234645658553
 30
0.0
 10
69.47172849825706
 20
-24.32099608766975
 30
0.0
 10
69.48413084200396
 20
-24.29067924739955
 30
0.0
 10
69.49308809026562
 20
-24.25106064931918
 30
0.0
 10
69.92510306411594
 20
-22.30940483383237
 30
0.0
 10
69.92510306411594
 20
-20.35913627963244
 30
0.0
 10
69.60712075082739
 20
-18.40301106310758
 30
0.0
 10
69.27845864153456
 20
-16.37591687958658
 30
0.0
 10
68.59081758267868
 20
-14.47077907624342
 30
0.0
 10
67.64341632423498
 20
-12.65383571732265
 30
0.0
 10
67.53592934509518
 20
-12.44747449775619
 30
0.0
 10
67.41087237898061
 20
-12.36651475385282
 30
0.0
 10
67.18108451011446
 20
-12.39028591270104
 30
0.0
 10
66.68774683662667
 20
-12.44058430678569
 30
0.0
 10
66.19647622043006
 20
-12.49983994913199
 30
0.0
 10
65.70796168062162
 20
-12.59113497949111
 30
0.0
 10
63.73805608215577
 20
-12.95941568686431
 30
0.0
 10
61.93179251923927
 20
-13.72491590368683
 30
0.0
 10
60.31156411252628
 20
-14.89624836867177
 30
0.0
 10
59.56225584448444
 20
-15.43781737895305
 30
0.0
 10
58.90320907815615
 20
-16.07378200553017
 30
0.0
 10
58.30755206875645
 20
-16.77072482219621
 30
0.0
 10
57.98543564088559
 20
-17.14727375873402
 30
0.0
 10
57.67641057585868
 20
-17.53656954856725
 30
0.0
 10
57.39391274606819
 20
-17.9496364972487
 30
0.0
 10
56.81927081912852
 20
-18.78851724790704
 30
0.0
 10
56.38208820205031
 20
-19.70043402285267
 30
0.0
 10
55.97625595388789
 20
-20.62854274657898
 30
0.0
  0
SPLINE
  5
5E
330
3C
100
AcDbEntity
  8
Layer 1
370
     0
100
AcDbSpline
210
0.0
220
0.0
230
1.0
 70
    11
 71
     3
 72
    17
 73
    13
 74
     0
 42
0.0000000001
 43
0.0000000001
 40
0.0
 40
0.0
 40
0.0
 40
0.0
 40
1.0
 40
1.0
 40
1.0
 40
2.0
 40
2.0
 40
2.0
 40
3.0
 40
3.0
 40
3.0
 40
4.0
 40
4.0
 40
4.0
 40
4.0
 10
68.38652342040338
 20
-23.33087564520895
 30
0.0
 10
68.39100204453419
 20
-23.45593261132352
 30
0.0
 10
68.40030380234437
 20
-23.57961153924399
 30
0.0
 10
68.40168184053847
 20
-23.70570203400413
 30
0.0
 10
68.36791990478302
 20
-23.55273979445904
 30
0.0
 10
68.33140189263938
 20
-23.40046657401099
 30
0.0
 10
68.29626191868982
 20
-23.24784884401443
 30
0.0
 10
67.83909774779717
 20
-21.27484265961185
 30
0.0
 10
67.2603217062752
 20
-19.33869899690144
 30
0.0
 10
66.46829425421626
 20
-17.46904567705635
 30
0.0
 10
67.73161076865738
 20
-19.23052299866459
 30
0.0
 10
68.30728622424263
 20
-21.2038736926157
 30
0.0
 10
68.38652342040338
 20
-23.33087564520895
 30
0.0
  0
SPLINE
  5
5F
330
3C
100
AcDbEntity
  8
Layer 1
370
     0
100
AcDbSpline
210
0.0
220
0.0
230
1.0
 70
    11
 71
     3
 72
    11
 73
     7
 74
     0
 42
0.0000000001
 43
0.0000000001
 40
0.0
 40
0.0
 40
0.0
 40
0.0
 40
1.0
 40
1.0
 40
1.0
 40
2.0
 40
2.0
 40
2.0
 40
2.0
 10
66.5626898705121
 20
-25.4082682228146
 30
0.0
 10
64.7285210341651
 20
-25.02655164304892
 30
0.0
 10
63.28399249719984
 20
-23.98888888289167
 30
0.0
 10
62.02549911643807
 20
-22.64220105770751
 30
0.0
 10
63.52997231484667
 20
-23.57444389601611
 30
0.0
 10
64.98345810007358
 20
-24.58902451642219
 30
0.0
 10
66.5626898705121
 20
-25.4082682228146
 30
0.0
  0
HATCH
  5
60
330
3C
100
AcDbEntity
  8
Layer 1
 62
   240
420
 15539236
100
AcDbHatch
 10
0.0
 20
0.0
 30
0.0
210
0.0
220
0.0
230
1.0
  2
SOLID
 70
     1
 71
     0
 91
        3
 92
        1
 93
        1
 72
     4
 94
        3
 73
     0
 74
     1
 95
       74
 96
       70
 40
0.0
 40
0.0
 40
0.0
 40
0.0
 40
1.0
 40
1.0
 40
1.0
 40
2.0
 40
2.0
 40
2.0
 40
3.0
 40
3.0
 40
3.0
 40
4.0
 40
4.0
 40
4.0
 40
5.0
 40
5.0
 40
5.0
 40
6.0
 40
6.0
 40
6.0
 40
7.0
 40
7.0
 40
7.0
 40
8.0
 40
8.0
 40
8.0
 40
9.0
 40
9.0
 40
9.0
 40
10.0
 40
10.0
 40
10.0
 40
11.0
 40
11.0
 40
11.0
 40
12.0
 40
12.0
 40
12.0
 40
13.0
 40
13.0
 40
13.0
 40
14.0
 40
14.0
 40
14.0
 40
15.0
 40
15.0
 40
15.0
 40
16.0
 40
16.0
 40
16.0
 40
17.0
 40
17.0
 40
17.0
 40
18.0
 40
18.0
 40
18.0
 40
19.0
 40
19.0
 40
19.0
 40
20.0
 40
20.0
 40
20.0
 40
21.0
 40
21.0
 40
21.0
 40
22.0
 40
22.0
 40
22.0
 40
23.0
 40
23.0
 40
23.0
 40
23.0
 10
55.97625595388789
 20
-20.62854274657898
 10
55.85877819784086
 20
-20.89691568487994
 10
55.89529620998452
 20
-21.08742946521425
 10
56.12577309794773
 20
-21.30584851897909
 10
56.7403781325163
 20
-21.88875867508337
 10
57.37289766360816
 20
-22.44755316279089
 10
58.03573403497023
 20
-22.97327473384001
 10
59.50678980717192
 20
-24.14150661288824
 10
61.06948511928124
 20
-25.15815429058546
 10
62.82717283585571
 20
-25.84269476350461
 10
64.03054468885348
 20
-26.31053873040153
 10
65.27043455399489
 20
-26.59854871296842
 10
66.57784829064721
 20
-26.52206759319587
 10
66.87309297373312
 20
-26.50484211576962
 10
67.00228405442999
 20
-26.41699218089575
 10
67.01193032178868
 20
-26.11003417315999
 10
67.02433266553558
 20
-25.70006781041526
 10
67.23310545194173
 20
-25.35142414730798
 10
67.50630152392203
 20
-25.06927082706602
 10
67.70611706206653
 20
-24.86256509795103
 10
67.66546493534058
 20
-24.76127929068468
 10
67.46633841629314
 20
-24.61486273256156
 10
66.66294214913287
 20
-24.02540689503532
 10
66.0400688853997
 20
-23.26851941692593
 10
65.53053926313126
 20
-22.42205945620004
 10
65.2897270887123
 20
-22.02139485126549
 10
65.06717392036515
 20
-21.60074869251648
 10
64.94969616431814
 20
-21.04884439577946
 10
65.17466089950494
 20
-21.23935817611377
 10
65.27284612083457
 20
-21.40920138353659
 10
65.38377819545961
 20
-21.56974283314923
 10
66.08864473174174
 20
-22.58880207768613
 10
66.79730087305762
 20
-23.60579426493189
 10
67.57382539543293
 20
-24.57352158673856
 10
67.70611706206653
 20
-24.73888617003056
 10
67.82600638495322
 20
-24.78022731585355
 10
68.02134329896688
 20
-24.68927679504296
 10
68.3648193188463
 20
-24.52942436452737
 10
68.73275551667098
 20
-24.45983343572532
 10
69.10861543411174
 20
-24.52597926904212
 10
69.30739744361065
 20
-24.56077473344314
 10
69.40351560764913
 20
-24.49807399561159
 10
69.45967066405869
 20
-24.35234645658553
 10
69.47172849825706
 20
-24.32099608766975
 10
69.48413084200396
 20
-24.29067924739955
 10
69.49308809026562
 20
-24.25106064931918
 10
69.92510306411594
 20
-22.30940483383237
 10
69.92510306411594
 20
-20.35913627963244
 10
69.60712075082739
 20
-18.40301106310758
 10
69.27845864153456
 20
-16.37591687958658
 10
68.59081758267868
 20
-14.47077907624342
 10
67.64341632423498
 20
-12.65383571732265
 10
67.53592934509518
 20
-12.44747449775619
 10
67.41087237898061
 20
-12.36651475385282
 10
67.18108451011446
 20
-12.39028591270104
 10
66.68774683662667
 20
-12.44058430678569
 10
66.19647622043006
 20
-12.49983994913199
 10
65.70796168062162
 20
-12.59113497949111
 10
63.73805608215577
 20
-12.95941568686431
 10
61.93179251923927
 20
-13.72491590368683
 10
60.31156411252628
 20
-14.89624836867177
 10
59.56225584448444
 20
-15.43781737895305
 10
58.90320907815615
 20
-16.07378200553017
 10
58.30755206875645
 20
-16.77072482219621
 10
57.98543564088559
 20
-17.14727375873402
 10
57.67641057585868
 20
-17.53656954856725
 10
57.39391274606819
 20
-17.9496364972487
 10
56.81927081912852
 20
-18.78851724790704
 10
56.38208820205031
 20
-19.70043402285267
 10
55.97625595388789
 20
-20.62854274657898
 97
        0
 92
        1
 93
        1
 72
     4
 94
        3
 73
     0
 74
     1
 95
       17
 96
       13
 40
0.0
 40
0.0
 40
0.0
 40
0.0
 40
1.0
 40
1.0
 40
1.0
 40
2.0
 40
2.0
 40
2.0
 40
3.0
 40
3.0
 40
3.0
 40
4.0
 40
4.0
 40
4.0
 40
4.0
 10
68.38652342040338
 20
-23.33087564520895
 10
68.39100204453419
 20
-23.45593261132352
 10
68.40030380234437
 20
-23.57961153924399
 10
68.40168184053847
 20
-23.70570203400413
 10
68.36791990478302
 20
-23.55273979445904
 10
68.33140189263938
 20
-23.40046657401099
 10
68.29626191868982
 20
-23.24784884401443
 10
67.83909774779717
 20
-21.27484265961185
 10
67.2603217062752
 20
-19.33869899690144
 10
66.46829425421626
 20
-17.46904567705635
 10
67.73161076865738
 20
-19.23052299866459
 10
68.30728622424263
 20
-21.2038736926157
 10
68.38652342040338
 20
-23.33087564520895
 97
        0
 92
        1
 93
        1
 72
     4
 94
        3
 73
     0
 74
     1
 95
       11
 96
        7
 40
0.0
 40
0.0
 40
0.0
 40
0.0
 40
1.0
 40
1.0
 40
1.0
 40
2.0
 40
2.0
 40
2.0
 40
2.0
 10
66.5626898705121
 20
-25.4082682228146
 10
64.7285210341651
 20
-25.02655164304892
 10
63.28399249719984
 20
-23.98888888289167
 10
62.02549911643807
 20
-22.64220105770751
 10
63.52997231484667
 20
-23.57444389601611
 10
64.98345810007358
 20
-24.58902451642219
 10
66.5626898705121
 20
-25.4082682228146
 97
        0
 75
     2
 76
     1
 98
        0
  0
SPLINE
  5
61
330
3C
100
AcDbEntity
  8
Layer 1
370
     0
100
AcDbSpline
210
0.0
220
0.0
230
1.0
 70
    11
 71
     3
 72
    20
 73
    16
 74
     0
 42
0.0000000001
 43
0.0000000001
 40
0.0
 40
0.0
 40
0.0
 40
0.0
 40
1.0
 40
1.0
 40
1.0
 40
2.0
 40
2.0
 40
2.0
 40
3.0
 40
3.0
 40
3.0
 40
4.0
 40
4.0
 40
4.0
 40
5.0
 40
5.0
 40
5.0
 40
5.0
 10
71.16154783377212
 20
-27.23141275360882
 30
0.0
 10
71.19186467404232
 20
-26.64815808795602
 30
0.0
 10
70.98033581124797
 20
-26.14000650388166
 30
0.0
 10
70.62996960039807
 20
-25.68387586163459
 30
0.0
 10
70.27202417948061
 20
-25.24083658223146
 30
0.0
 10
69.82140569000993
 20
-24.95386012831015
 30
0.0
 10
69.26708982643324
 20
-24.82019042348245
 30
0.0
 10
68.41821829886767
 20
-24.61520724211009
 30
0.0
 10
67.62033418448381
 20
-25.04481064912074
 30
0.0
 10
67.3471381125035
 20
-25.8647433746102
 30
0.0
 10
66.9320041065309
 20
-27.10635578749424
 30
0.0
 10
67.94245061235466
 20
-28.64975856488617
 30
0.0
 10
69.27329099830668
 20
-28.80823295720766
 30
0.0
 10
70.37089841990728
 20
-28.93914658564716
 30
0.0
 10
71.1033257200714
 20
-28.33246527069466
 30
0.0
 10
71.16154783377212
 20
-27.23141275360882
 30
0.0
  0
HATCH
  5
62
330
3C
100
AcDbEntity
  8
Layer 1
 62
   240
420
 15539236
100
AcDbHatch
 10
0.0
 20
0.0
 30
0.0
210
0.0
220
0.0
230
1.0
  2
SOLID
 70
     1
 71
     0
 91
        1
 92
        1
 93
        1
 72
     4
 94
        3
 73
     0
 74
     1
 95
       20
 96
       16
 40
0.0
 40
0.0
 40
0.0
 40
0.0
 40
1.0
 40
1.0
 40
1.0
 40
2.0
 40
2.0
 40
2.0
 40
3.0
 40
3.0
 40
3.0
 40
4.0
 40
4.0
 40
4.0
 40
5.0
 40
5.0
 40
5.0
 40
5.0
 10
71.16154783377212
 20
-27.23141275360882
 10
71.19186467404232
 20
-26.64815808795602
 10
70.98033581124797
 20
-26.14000650388166
 10
70.62996960039807
 20
-25.68387586163459
 10
70.27202417948061
 20
-25.24083658223146
 10
69.82140569000993
 20
-24.95386012831015
 10
69.26708982643324
 20
-24.82019042348245
 10
68.41821829886767
 20
-24.61520724211009
 10
67.62033418448381
 20
-25.04481064912074
 10
67.3471381125035
 20
-25.8647433746102
 10
66.9320041065309
 20
-27.10635578749424
 10
67.94245061235466
 20
-28.64975856488617
 10
69.27329099830668
 20
-28.80823295720766
 10
70.37089841990728
 20
-28.93914658564716
 10
71.1033257200714
 20
-28.33246527069466
 10
71.16154783377212
 20
-27.23141275360882
 97
        0
 75
     2
 76
     1
 98
        0
  0
ENDBLK
  5
3F
330
3C
100
AcDbEntity
  8
0
100
AcDbBlockEnd
  0
ENDSEC
  0
SECTION
  2
ENTITIES
  0
INSERT
  5
3D
330
1F
100
AcDbEntity
  8
Layer 1
100
AcDbBlockReference
  2
block 2
 10
0.0
 20
0.0
 30
0.0
  0
ENDSEC
  0
SECTION
  2
OBJECTS
  0
DICTIONARY
  5
C
330
0
100
AcDbDictionary
281
     1
  3
ACAD_GROUP
350
D
  3
ACAD_LAYOUT
350
1A
  3
ACAD_MLINESTYLE
350
17
  3
ACAD_PLOTSETTINGS
350
19
  3
ACAD_PLOTSTYLENAME
350
E
  3
ACAD_TABLESTYLE
350
63
  3
ACAD_VISUALSTYLE
350
2A
  0
DICTIONARY
  5
D
102
{ACAD_REACTORS
330
C
102
}
330
C
100
AcDbDictionary
281
     1
  0
DICTIONARY
  5
1A
102
{ACAD_REACTORS
330
C
102
}
330
C
100
AcDbDictionary
281
     1
  3
Layout1
350
1E
  3
Layout2
350
26
  3
Model
350
22
  0
DICTIONARY
  5
17
102
{ACAD_REACTORS
330
C
102
}
330
C
100
AcDbDictionary
281
     1
  3
Standard
350
18
  0
DICTIONARY
  5
19
102
{ACAD_REACTORS
330
C
102
}
330
C
100
AcDbDictionary
281
     1
  0
ACDBDICTIONARYWDFLT
  5
E
102
{ACAD_REACTORS
330
C
102
}
330
C
100
AcDbDictionary
281
     1
  3
Normal
350
F
100
AcDbDictionaryWithDefault
340
F
  0
DICTIONARY
  5
63
102
{ACAD_REACTORS
330
C
102
}
330
C
100
AcDbDictionary
281
     1
  0
DICTIONARY
  5
2A
102
{ACAD_REACTORS
330
C
102
}
330
C
100
AcDbDictionary
281
     1
  3
2dWireframe
350
2F
  3
3D Hidden
350
31
  3
3dWireframe
350
30
  3
Basic
350
32
  3
Brighten
350
36
  3
ColorChange
350
3A
  3
Conceptual
350
34
  3
Dim
350
35
  3
Facepattern
350
39
  3
Flat
350
2B
  3
FlatWithEdges
350
2C
  3
Gouraud
350
2D
  3
GouraudWithEdges
350
2E
  3
Linepattern
350
38
  3
Realistic
350
33
  3
Thicken
350
37
  0
LAYOUT
  5
1E
102
{ACAD_REACTORS
330
1A
102
}
330
1A
100
AcDbPlotSettings
  1

  2
none_device
  4

  6

 40
0.0
 41
0.0
 42
0.0
 43
0.0
 44
0.0
 45
0.0
 46
0.0
 47
0.0
 48
0.0
 49
0.0
140
0.0
141
0.0
142
1.0
143
1.0
 70
   688
 72
     0
 73
     0
 74
     5
  7

 75
    16
 76
     0
 77
     2
 78
   300
147
1.0
148
0.0
149
0.0
100
AcDbLayout
  1
Layout1
 70
     1
 71
     1
 10
0.0
 20
0.0
 11
12.0
 21
9.0
 12
0.0
 22
0.0
 32
0.0
 14
1.000000000000000E+20
 24
1.000000000000000E+20
 34
1.000000000000000E+20
 15
-1.000000000000000E+20
 25
-1.000000000000000E+20
 35
-1.000000000000000E+20
146
0.0
 13
0.0
 23
0.0
 33
0.0
 16
1.0
 26
0.0
 36
0.0
 17
0.0
 27
1.0
 37
0.0
 76
     0
330
1B
  0
LAYOUT
  5
26
102
{ACAD_REACTORS
330
1A
102
}
330
1A
100
AcDbPlotSettings
  1

  2
none_device
  4

  6

 40
0.0
 41
0.0
 42
0.0
 43
0.0
 44
0.0
 45
0.0
 46
0.0
 47
0.0
 48
0.0
 49
0.0
140
0.0
141
0.0
142
1.0
143
1.0
 70
   688
 72
     0
 73
     0
 74
     5
  7

 75
    16
 76
     0
 77
     2
 78
   300
147
1.0
148
0.0
149
0.0
100
AcDbLayout
  1
Layout2
 70
     1
 71
     2
 10
0.0
 20
0.0
 11
0.0
 21
0.0
 12
0.0
 22
0.0
 32
0.0
 14
0.0
 24
0.0
 34
0.0
 15
0.0
 25
0.0
 35
0.0
146
0.0
 13
0.0
 23
0.0
 33
0.0
 16
1.0
 26
0.0
 36
0.0
 17
0.0
 27
1.0
 37
0.0
 76
     0
330
23
  0
LAYOUT
  5
22
102
{ACAD_REACTORS
330
1A
102
}
330
1A
100
AcDbPlotSettings
  1

  2
none_device
  4

  6

 40
0.0
 41
0.0
 42
0.0
 43
0.0
 44
0.0
 45
0.0
 46
0.0
 47
0.0
 48
0.0
 49
0.0
140
0.0
141
0.0
142
1.0
143
1.0
 70
  1712
 72
     0
 73
     0
 74
     0
  7

 75
     0
 76
     0
 77
     2
 78
   300
147
1.0
148
0.0
149
0.0
100
AcDbLayout
  1
Model
 70
     1
 71
     0
 10
0.0
 20
0.0
 11
12.0
 21
9.0
 12
0.0
 22
0.0
 32
0.0
 14
1.000000000000000E+20
 24
1.000000000000000E+20
 34
1.000000000000000E+20
 15
-1.000000000000000E+20
 25
-1.000000000000000E+20
 35
-1.000000000000000E+20
146
0.0
 13
0.0
 23
0.0
 33
0.0
 16
1.0
 26
0.0
 36
0.0
 17
0.0
 27
1.0
 37
0.0
 76
     0
330
1F
331
29
  0
MLINESTYLE
  5
18
102
{ACAD_REACTORS
330
17
102
}
330
17
100
AcDbMlineStyle
  2
Standard
 70
     0
  3

 62
   256
 51
90.0
 52
90.0
 71
     2
 49
0.5
 62
   256
  6
BYLAYER
 49
-0.5
 62
   256
  6
BYLAYER
  0
ACDBPLACEHOLDER
  5
F
102
{ACAD_REACTORS
330
E
102
}
330
E
  0
VISUALSTYLE
  5
2F
102
{ACAD_REACTORS
330
2A
102
}
330
2A
100
AcDbVisualStyle
  2
2dWireframe
 70
     4
 71
     0
 72
     2
 73
     0
 90
        0
 40
-0.6
 41
-30.0
 62
     5
 63
     7
421
 16777215
 74
     1
 91
        4
 64
     7
 65
   257
 75
     1
175
     1
 42
1.0
 92
        0
 66
   257
 43
1.0
 76
     1
 77
     6
 78
     2
 67
     7
 79
     5
170
     0
171
     0
290
     0
174
     0
 93
        1
 44
0.0
173
     0
291
     0
 45
0.0
1001
ACAD
1000
AcDbSavedByObjectVersion
1070
     0
  0
VISUALSTYLE
  5
31
102
{ACAD_REACTORS
330
2A
102
}
330
2A
100
AcDbVisualStyle
  2
3D Hidden
 70
     6
 71
     1
 72
     2
 73
     2
 90
        0
 40
-0.6
 41
-30.0
 62
     5
 63
     7
421
 16777215
 74
     2
 91
        2
 64
     7
 65
   257
 75
     2
175
     1
 42
40.0
 92
        0
 66
   257
 43
1.0
 76
     1
 77
     6
 78
     2
 67
     7
 79
     3
170
     0
171
     0
290
     0
174
     0
 93
        1
 44
0.0
173
     0
291
     0
 45
0.0
1001
ACAD
1000
AcDbSavedByObjectVersion
1070
     0
  0
VISUALSTYLE
  5
30
102
{ACAD_REACTORS
330
2A
102
}
330
2A
100
AcDbVisualStyle
  2
3dWireframe
 70
     5
 71
     0
 72
     2
 73
     0
 90
        0
 40
-0.6
 41
-30.0
 62
     5
 63
     7
421
 16777215
 74
     1
 91
        4
 64
     7
 65
   257
 75
     1
175
     1
 42
1.0
 92
        0
 66
   257
 43
1.0
 76
     1
 77
     6
 78
     2
 67
     7
 79
     5
170
     0
171
     0
290
     0
174
     0
 93
        1
 44
0.0
173
     0
291
     0
 45
0.0
1001
ACAD
1000
AcDbSavedByObjectVersion
1070
     0
  0
VISUALSTYLE
  5
32
102
{ACAD_REACTORS
330
2A
102
}
330
2A
100
AcDbVisualStyle
  2
Basic
 70
     7
 71
     1
 72
     0
 73
     1
 90
        0
 40
-0.6
 41
-30.0
 62
     5
 63
     7
421
 16777215
 74
     0
 91
        4
 64
     7
 65
   257
 75
     1
175
     1
 42
1.0
 92
        8
 66
     7
 43
1.0
 76
     1
 77
     6
 78
     2
 67
     7
 79
     5
170
     0
171
     0
290
     0
174
     0
 93
        1
 44
0.0
173
     0
291
     1
 45
0.0
1001
ACAD
1000
AcDbSavedByObjectVersion
1070
     0
  0
VISUALSTYLE
  5
36
102
{ACAD_REACTORS
330
2A
102
}
330
2A
100
AcDbVisualStyle
  2
Brighten
 70
    12
 71
     2
 72
     2
 73
     0
 90
        0
 40
-0.6
 41
-30.0
 62
     5
 63
     7
421
 16777215
 74
     1
 91
        4
 64
     7
 65
   257
 75
     1
175
     1
 42
1.0
 92
        8
 66
     7
 43
1.0
 76
     1
 77
     6
 78
     2
 67
     7
 79
     5
170
     0
171
     0
290
     0
174
     0
 93
        1
 44
50.0
173
     0
291
     1
 45
0.0
1001
ACAD
1000
AcDbSavedByObjectVersion
1070
     0
  0
VISUALSTYLE
  5
3A
102
{ACAD_REACTORS
330
2A
102
}
330
2A
100
AcDbVisualStyle
  2
ColorChange
 70
    16
 71
     2
 72
     2
 73
     3
 90
        0
 40
-0.6
 41
-30.0
 62
     5
 63
     8
421
  8421504
 74
     1
 91
        4
 64
     7
 65
   257
 75
     1
175
     1
 42
1.0
 92
        8
 66
     8
424
  8421504
 43
1.0
 76
     1
 77
     6
 78
     2
 67
     7
 79
     5
170
     0
171
     0
290
     0
174
     0
 93
        1
 44
0.0
173
     0
291
     1
 45
0.0
1001
ACAD
1000
AcDbSavedByObjectVersion
1070
     0
  0
VISUALSTYLE
  5
34
102
{ACAD_REACTORS
330
2A
102
}
330
2A
100
AcDbVisualStyle
  2
Conceptual
 70
     9
 71
     3
 72
     2
 73
     0
 90
        0
 40
-0.6
 41
-30.0
 62
     5
 63
     7
421
 16777215
 74
     2
 91
        2
 64
     7
 65
   257
 75
     1
175
     1
 42
40.0
 92
        8
 66
     7
 43
1.0
 76
     1
 77
     6
 78
     2
 67
     7
 79
     3
170
     0
171
     0
290
     0
174
     0
 93
        1
 44
0.0
173
     0
291
     0
 45
0.0
1001
ACAD
1000
AcDbSavedByObjectVersion
1070
     0
  0
VISUALSTYLE
  5
35
102
{ACAD_REACTORS
330
2A
102
}
330
2A
100
AcDbVisualStyle
  2
Dim
 70
    11
 71
     2
 72
     2
 73
     0
 90
        0
 40
-0.6
 41
-30.0
 62
     5
 63
     7
421
 16777215
 74
     1
 91
        4
 64
     7
 65
   257
 75
     1
175
     1
 42
1.0
 92
        8
 66
     7
 43
1.0
 76
     1
 77
     6
 78
     2
 67
     7
 79
     5
170
     0
171
     0
290
     0
174
     0
 93
        1
 44
-50.0
173
     0
291
     1
 45
0.0
1001
ACAD
1000
AcDbSavedByObjectVersion
1070
     0
  0
VISUALSTYLE
  5
39
102
{ACAD_REACTORS
330
2A
102
}
330
2A
100
AcDbVisualStyle
  2
Facepattern
 70
    15
 71
     2
 72
     2
 73
     0
 90
        0
 40
-0.6
 41
-30.0
 62
     5
 63
     7
421
 16777215
 74
     1
 91
        4
 64
     7
 65
   257
 75
     1
175
     1
 42
1.0
 92
        8
 66
     7
 43
1.0
 76
     1
 77
     6
 78
     2
 67
     7
 79
     5
170
     0
171
     0
290
     0
174
     0
 93
        1
 44
0.0
173
     0
291
     1
 45
0.0
1001
ACAD
1000
AcDbSavedByObjectVersion
1070
     0
  0
VISUALSTYLE
  5
2B
102
{ACAD_REACTORS
330
2A
102
}
330
2A
100
AcDbVisualStyle
  2
Flat
 70
     0
 71
     2
 72
     1
 73
     1
 90
        2
 40
-0.6
 41
30.0
 62
     5
 63
     7
421
 16777215
 74
     0
 91
        4
 64
     7
 65
   257
 75
     1
175
     1
 42
1.0
 92
        8
 66
     7
 43
1.0
 76
     1
 77
     6
 78
     2
 67
     7
 79
     5
170
     0
171
     0
290
     0
174
     0
 93
       13
 44
0.0
173
     0
291
     1
 45
0.0
1001
ACAD
1000
AcDbSavedByObjectVersion
1070
     0
  0
VISUALSTYLE
  5
2C
102
{ACAD_REACTORS
330
2A
102
}
330
2A
100
AcDbVisualStyle
  2
FlatWithEdges
 70
     1
 71
     2
 72
     1
 73
     1
 90
        2
 40
-0.6
 41
30.0
 62
     5
 63
     7
421
 16777215
 74
     1
 91
        4
 64
     7
 65
   257
 75
     1
175
     1
 42
1.0
 92
        0
 66
   257
 43
1.0
 76
     1
 77
     6
 78
     2
 67
     7
 79
     5
170
     0
171
     0
290
     0
174
     0
 93
       13
 44
0.0
173
     0
291
     1
 45
0.0
1001
ACAD
1000
AcDbSavedByObjectVersion
1070
     0
  0
VISUALSTYLE
  5
2D
102
{ACAD_REACTORS
330
2A
102
}
330
2A
100
AcDbVisualStyle
  2
Gouraud
 70
     2
 71
     2
 72
     2
 73
     1
 90
        2
 40
-0.6
 41
30.0
 62
     5
 63
     7
421
 16777215
 74
     0
 91
        4
 64
     7
 65
   257
 75
     1
175
     1
 42
1.0
 92
        0
 66
     7
 43
1.0
 76
     1
 77
     6
 78
     2
 67
     7
 79
     5
170
     0
171
     0
290
     0
174
     0
 93
       13
 44
0.0
173
     0
291
     1
 45
0.0
1001
ACAD
1000
AcDbSavedByObjectVersion
1070
     0
  0
VISUALSTYLE
  5
2E
102
{ACAD_REACTORS
330
2A
102
}
330
2A
100
AcDbVisualStyle
  2
GouraudWithEdges
 70
     3
 71
     2
 72
     2
 73
     1
 90
        2
 40
-0.6
 41
30.0
 62
     5
 63
     7
421
 16777215
 74
     1
 91
        4
 64
     7
 65
   257
 75
     1
175
     1
 42
1.0
 92
        0
 66
   257
 43
1.0
 76
     1
 77
     6
 78
     2
 67
     7
 79
     5
170
     0
171
     0
290
     0
174
     0
 93
       13
 44
0.0
173
     0
291
     1
 45
0.0
1001
ACAD
1000
AcDbSavedByObjectVersion
1070
     0
  0
VISUALSTYLE
  5
38
102
{ACAD_REACTORS
330
2A
102
}
330
2A
100
AcDbVisualStyle
  2
Linepattern
 70
    14
 71
     2
 72
     2
 73
     0
 90
        0
 40
-0.6
 41
-30.0
 62
     5
 63
     7
421
 16777215
 74
     1
 91
        4
 64
     7
 65
   257
 75
     7
175
     7
 42
1.0
 92
        8
 66
     7
 43
1.0
 76
     1
 77
     6
 78
     2
 67
     7
 79
     5
170
     0
171
     0
290
     0
174
     0
 93
        1
 44
0.0
173
     0
291
     1
 45
0.0
1001
ACAD
1000
AcDbSavedByObjectVersion
1070
     0
  0
VISUALSTYLE
  5
33
102
{ACAD_REACTORS
330
2A
102
}
330
2A
100
AcDbVisualStyle
  2
Realistic
 70
     8
 71
     2
 72
     2
 73
     0
 90
        0
 40
-0.6
 41
-30.0
 62
     5
 63
     7
421
 16777215
 74
     1
 91
        0
 64
     7
 65
   257
 75
     1
175
     1
 42
1.0
 92
        8
 66
     8
424
  7895160
 43
1.0
 76
     1
 77
     6
 78
     2
 67
     7
 79
     5
170
     0
171
     0
290
     0
174
     0
 93
       13
 44
0.0
173
     0
291
     0
 45
0.0
1001
ACAD
1000
AcDbSavedByObjectVersion
1070
     0
  0
VISUALSTYLE
  5
37
102
{ACAD_REACTORS
330
2A
102
}
330
2A
100
AcDbVisualStyle
  2
Thicken
 70
    13
 71
     2
 72
     2
 73
     0
 90
        0
 40
-0.6
 41
-30.0
 62
     5
 63
     7
421
 16777215
 74
     1
 91
        4
 64
     7
 65
   257
 75
     1
175
     1
 42
1.0
 92
       12
 66
     7
 43
1.0
 76
     1
 77
     6
 78
     2
 67
     7
 79
     5
170
     0
171
     0
290
     0
174
     0
 93
        1
 44
0.0
173
     0
291
     1
 45
0.0
1001
ACAD
1000
AcDbSavedByObjectVersion
1070
     0
  0
ENDSEC
  0
EOF
