<?xml version="1.0" encoding="utf-8"?>
<!-- Generator: Adobe Illustrator 16.0.0, SVG Export Plug-In . SVG Version: 6.00 Build 0)  -->
<!DOCTYPE svg PUBLIC "-//W3C//DTD SVG 1.1//EN" "http://www.w3.org/Graphics/SVG/1.1/DTD/svg11.dtd">
<svg version="1.1" id="Layer_1" xmlns="http://www.w3.org/2000/svg" xmlns:xlink="http://www.w3.org/1999/xlink" x="0px" y="0px"
	 width="283.46px" height="283.46px" viewBox="0 0 283.46 283.46" enable-background="new 0 0 283.46 283.46" xml:space="preserve">
<g>
	<g>
		<path fill="#FFF200" d="M132.292,141.795L132.292,141.795l76.318-71.764c-19.107-20.313-46.23-33.002-76.318-33.002
			c-57.859,0-104.765,46.906-104.765,104.766c0,57.861,46.906,104.766,104.765,104.766c27.771,0,53.015-10.811,71.764-28.447
			L132.292,141.795z"/>
		<g>
			<circle cx="132.799" cy="91.598" r="13.889"/>
		</g>
	</g>
	<g>
		<path fill="#2B3990" d="M190.902,156.186c-7.934,0-14.389-6.455-14.389-14.391c0-7.934,6.455-14.391,14.389-14.391
			s14.389,6.457,14.389,14.391C205.291,149.73,198.836,156.186,190.902,156.186z M190.902,128.404
			c-7.383,0-13.389,6.008-13.389,13.391c0,7.385,6.006,13.391,13.389,13.391s13.389-6.006,13.389-13.391
			C204.291,134.412,198.285,128.404,190.902,128.404z"/>
	</g>
	<g>
		<path fill="#2B3990" d="M240.995,156.186c-7.934,0-14.389-6.455-14.389-14.391c0-7.934,6.455-14.391,14.389-14.391
			s14.389,6.457,14.389,14.391C255.384,149.73,248.929,156.186,240.995,156.186z M240.995,128.404
			c-7.383,0-13.389,6.008-13.389,13.391c0,7.385,6.006,13.391,13.389,13.391s13.389-6.006,13.389-13.391
			C254.384,134.412,248.378,128.404,240.995,128.404z"/>
	</g>
</g>
</svg>
