<?xml version="1.0" encoding="utf-8"?>
<!-- Generator: Adobe Illustrator 16.0.0, SVG Export Plug-In . SVG Version: 6.00 Build 0)  -->
<!DOCTYPE svg PUBLIC "-//W3C//DTD SVG 1.1//EN" "http://www.w3.org/Graphics/SVG/1.1/DTD/svg11.dtd">
<svg version="1.1" id="Layer_1" xmlns="http://www.w3.org/2000/svg" xmlns:xlink="http://www.w3.org/1999/xlink" x="0px" y="0px"
	 width="283.46px" height="283.46px" viewBox="0 0 283.46 283.46" enable-background="new 0 0 283.46 283.46" xml:space="preserve">
<g>
	<path d="M155.838,40.029c14.288,0,28.104,2.902,41.065,8.628c11.607,5.128,22.017,12.276,30.98,21.273l-74.101,69.679l-2.186,2.055
		l2.055,2.186l69.679,74.102c-18.636,16.538-42.484,25.609-67.493,25.609c-56.113,0-101.765-45.652-101.765-101.766
		S99.725,40.029,155.838,40.029 M155.838,37.029c-57.859,0-104.765,46.906-104.765,104.766c0,57.861,46.905,104.766,104.765,104.766
		c27.772,0,53.016-10.811,71.764-28.447l-71.764-76.318l76.318-71.764C213.049,49.719,185.927,37.029,155.838,37.029L155.838,37.029
		z"/>
	<g>
		<path d="M156.346,80.707c6.004,0,10.889,4.886,10.889,10.891s-4.885,10.891-10.889,10.891s-10.889-4.886-10.889-10.891
			S150.342,80.707,156.346,80.707 M156.346,77.707c-7.672,0-13.889,6.219-13.889,13.891c0,7.67,6.217,13.891,13.889,13.891
			c7.67,0,13.889-6.221,13.889-13.891C170.234,83.926,164.016,77.707,156.346,77.707L156.346,77.707z"/>
	</g>
</g>
</svg>
