<?xml version="1.0" encoding="utf-8"?>
<!-- Generator: Adobe Illustrator 16.0.0, SVG Export Plug-In . SVG Version: 6.00 Build 0)  -->
<!DOCTYPE svg PUBLIC "-//W3C//DTD SVG 1.1//EN" "http://www.w3.org/Graphics/SVG/1.1/DTD/svg11.dtd">
<svg version="1.1" id="Layer_1" xmlns="http://www.w3.org/2000/svg" xmlns:xlink="http://www.w3.org/1999/xlink" x="0px" y="0px"
	 width="283.46px" height="283.46px" viewBox="0 0 283.46 283.46" enable-background="new 0 0 283.46 283.46" xml:space="preserve">
<g>
	<path fill="none" d="M193.852,66.135c-0.225-6.029-1.856-11.623-5.438-16.616c2.245,5.3,3.886,10.788,5.182,16.381
		C193.682,65.978,193.766,66.057,193.852,66.135z"/>
	<path fill="none" d="M206.804,80.342c0.31,0.408,0.614,0.82,0.917,1.232c1.786,0.794,3.542,1.616,5.256,2.518
		c2.764,1.455,5.409,3.112,8.056,4.796C219.066,85.993,211.206,81.499,206.804,80.342z"/>
	<path fill="#FFF200" d="M188.682,72.023c-4.477-2.322-8.597-5.198-12.861-7.841C179.388,68,183.482,70.941,188.682,72.023z"/>
	<path fill="#FFF200" d="M193.895,67.197c-0.004-0.357-0.03-0.708-0.043-1.063c-0.086-0.078-0.17-0.157-0.256-0.235
		C193.695,66.332,193.799,66.764,193.895,67.197z"/>
	<path fill="#FFF200" d="M204.126,98.339c-1.783-4.544-3.713-9.031-5.271-13.664C199.061,89.839,201.102,94.283,204.126,98.339z"/>
	<path fill="#FFF200" d="M204.403,80.139c1.12,0.472,2.224,0.949,3.317,1.436c-0.303-0.412-0.607-0.824-0.917-1.232
		C205.775,80.071,204.935,79.981,204.403,80.139z"/>
	<path fill="#FFF200" d="M210.453,91.248c-3.107-3.074-6.064-6.287-9.063-9.457C203.416,85.899,206.331,89.153,210.453,91.248z"/>
	<path fill="#FFF200" d="M204.87,115.686c-2.688-3.999-4.931-8.233-6.699-12.709c-2.184-5.533-3.617-11.203-2.847-17.227
		c0.107-0.838,0.339-1.661,0.496-2.494c0.103-0.553,0.379-0.772,0.97-0.747c1.127,0.05,2.213-0.147,3.204-0.744
		c1.523-0.917,2.288-2.322,2.479-4.027c0.082-0.748,0.371-0.972,1.092-1.005c0.126-0.006,0.251-0.004,0.377-0.008
		c-2.221-2.682-4.575-5.248-7.049-7.694c-0.159,0.413-0.432,0.591-0.995,0.492c-1.065-0.188-2.108,0.01-3.082,0.463
		c-0.554,0.258-0.894,0.141-1.269-0.328c-2.201-2.743-4.21-5.626-6.208-8.515c-0.314-0.455-0.593-0.937-1.23-1.477
		c0.333,1.564,0.964,2.757,1.646,3.893c1.444,2.399,3.21,4.545,5.487,6.216c0.564,0.415,0.68,0.702,0.113,1.288
		c-0.774,0.8-1.366,1.788-1.401,2.95c-0.027,0.87-0.394,1.119-1.23,1.168c-3.706,0.217-7.221-0.6-10.632-1.926
		c-4.982-1.94-9.412-4.822-13.582-8.134c-1.879-1.49-3.672-3.074-5.414-4.727c-0.653-0.619-0.757-1.159-0.424-1.92
		c1.15-2.631,2.39-5.216,4.019-7.594c0.801-1.171,1.677-2.274,2.59-3.342c-12.873-5.649-27.096-8.791-42.055-8.791
		c-30.088,0-57.21,12.688-76.317,33.002l3.434,3.229c3.849-5.198,10.007-8.584,16.972-8.584c11.669,0,21.127,9.46,21.127,21.128
		c0,6.498-2.938,12.304-7.553,16.18l42.338,39.811h0.001l-41.732,44.381c4.257,3.865,6.946,9.426,6.946,15.629
		c0,11.669-9.458,21.127-21.127,21.127c-5.735,0-10.93-2.294-14.736-6.003l-1.115,1.186c18.75,17.637,43.992,28.447,71.764,28.447
		c57.859,0,104.766-46.905,104.766-104.767c0-11.983-2.018-23.494-5.723-34.218c-4.722,3.634-10.096,5.845-15.954,7.03
		C205.632,116.462,205.254,116.257,204.87,115.686z M122.721,107.206c-7.672,0-13.889-6.221-13.889-13.891
		c0-7.671,6.217-13.891,13.889-13.891c7.671,0,13.889,6.22,13.889,13.891C136.609,100.985,130.392,107.206,122.721,107.206z
		 M190.905,73.317c0.774-2.324,3.036-3.542,5.442-2.961c1.571,0.379,2.849,1.192,3.863,2.448c0.993,1.293,1.593,2.733,1.507,4.387
		c-0.165,3.121-2.241,4.841-5.353,4.47C192.593,81.212,189.729,76.837,190.905,73.317z"/>
	<path d="M122.721,79.425c-7.672,0-13.889,6.22-13.889,13.891c0,7.67,6.217,13.891,13.889,13.891
		c7.671,0,13.889-6.221,13.889-13.891C136.609,85.645,130.392,79.425,122.721,79.425z M117.332,97.955
		c-2.977,0-5.389-2.414-5.389-5.39c0-2.977,2.412-5.39,5.389-5.39s5.389,2.413,5.389,5.39
		C122.721,95.541,120.309,97.955,117.332,97.955z"/>
	<circle fill="#FFFFFF" cx="117.332" cy="92.565" r="5.39"/>
	<path fill="#ED1C24" d="M88.441,87.522c0-11.668-9.458-21.128-21.127-21.128c-6.965,0-13.123,3.386-16.972,8.584l30.546,28.724
		C85.503,99.826,88.441,94.021,88.441,87.522z"/>
	<path fill="#ED1C24" d="M88.441,203.522c0-6.203-2.689-11.764-6.946-15.629l-28.917,30.753c3.807,3.709,9.001,6.003,14.736,6.003
		C78.983,224.649,88.441,215.191,88.441,203.522z"/>
	<path fill="#ED1C24" d="M235.039,88.087c-1.583-1.104-3.075-2.325-4.711-3.368c-4.426-2.816-9.112-5.028-14.176-6.425
		c-3.999-1.102-8.055-1.711-12.21-1.569c-0.126,0.004-0.251,0.002-0.377,0.008c-0.721,0.033-1.01,0.257-1.092,1.005
		c-0.191,1.705-0.956,3.11-2.479,4.027c-0.991,0.597-2.077,0.794-3.204,0.744c-0.591-0.025-0.867,0.194-0.97,0.747
		c-0.157,0.833-0.389,1.656-0.496,2.494c-0.771,6.023,0.663,11.693,2.847,17.227c1.769,4.476,4.012,8.71,6.699,12.709
		c0.384,0.571,0.762,0.776,1.445,0.64c5.858-1.186,11.232-3.396,15.954-7.03c0.405-0.312,0.814-0.615,1.209-0.948
		c3.418-2.953,6.287-6.354,8.402-10.368c1.435-2.724,2.725-5.505,3.496-8.501C235.519,88.93,235.594,88.475,235.039,88.087z
		 M198.854,84.675c1.559,4.633,3.488,9.12,5.271,13.664C201.102,94.283,199.061,89.839,198.854,84.675z M201.39,81.791
		c2.999,3.17,5.956,6.383,9.063,9.457C206.331,89.153,203.416,85.899,201.39,81.791z M212.977,84.092
		c-1.714-0.901-3.47-1.724-5.256-2.518c-1.094-0.486-2.197-0.964-3.317-1.436c0.531-0.157,1.372-0.067,2.4,0.203
		c4.402,1.157,12.263,5.651,14.229,8.546C218.386,87.204,215.74,85.547,212.977,84.092z"/>
	<path fill="#ED1C24" d="M158.673,58.475c-0.333,0.761-0.229,1.301,0.424,1.92c1.742,1.652,3.535,3.236,5.414,4.727
		c4.17,3.312,8.6,6.193,13.582,8.134c3.411,1.326,6.926,2.143,10.632,1.926c0.837-0.049,1.203-0.298,1.23-1.168
		c0.035-1.162,0.627-2.15,1.401-2.95c0.566-0.586,0.451-0.873-0.113-1.288c-2.277-1.671-4.043-3.816-5.487-6.216
		c-0.683-1.136-1.313-2.328-1.646-3.893c0.638,0.54,0.916,1.021,1.23,1.477c1.998,2.889,4.007,5.771,6.208,8.515
		c0.375,0.469,0.715,0.586,1.269,0.328c0.974-0.453,2.017-0.65,3.082-0.463c0.563,0.099,0.836-0.079,0.995-0.492
		c0.034-0.089,0.069-0.175,0.095-0.287c1.225-5.504,1.225-11.032,0.323-16.577c-0.932-5.746-2.881-11.146-5.566-16.297
		c-0.305-0.585-0.659-0.814-1.311-0.747c-1.398,0.143-2.791,0.311-4.176,0.569c-5.584,1.044-10.704,3.214-15.297,6.534
		c-2.124,1.535-3.992,3.338-5.681,5.313c-0.913,1.067-1.789,2.171-2.59,3.342C161.063,53.259,159.823,55.844,158.673,58.475z
		 M193.852,66.135c0.013,0.354,0.039,0.705,0.043,1.063c-0.096-0.434-0.199-0.865-0.299-1.298
		c-1.296-5.593-2.937-11.081-5.182-16.381C191.995,54.512,193.627,60.105,193.852,66.135z M188.682,72.023
		c-5.199-1.082-9.294-4.023-12.861-7.841C180.085,66.825,184.205,69.701,188.682,72.023z"/>
	<path fill="#ED1C24" d="M201.718,77.191c0.086-1.653-0.514-3.094-1.507-4.387c-1.015-1.256-2.292-2.069-3.863-2.448
		c-2.406-0.581-4.668,0.637-5.442,2.961c-1.177,3.52,1.688,7.895,5.46,8.344C199.477,82.032,201.553,80.313,201.718,77.191z"/>
</g>
</svg>
